<svg baseProfile="tiny" xmlns="http://www.w3.org/2000/svg" viewBox="0 0 200 200">
	<g fill="#FCB017">
		<path d="M134.24 5.76v23.17c1.98 2.5 3.01 5.24 2.94 8.07-.11 5-3.4 9.38-8.83 12.61l25.98 64.96c2.52-3.37 6.29-5.82 10.8-6.59 9.22-1.57 17.95 4.53 19.5 13.63.79 4.67-.47 9.21-3.13 12.75.25 2.08.36 4.16.34 6.23 7.96-13.83 12.52-29.88 12.52-47-.01-40.06-24.95-74.3-60.12-87.83zm23.76 36.83c2.37 0 4.29 1.92 4.29 4.29s-1.92 4.29-4.29 4.29-4.29-1.92-4.29-4.29 1.92-4.29 4.29-4.29zm-10.53 28.53l-1.35-11.71-11.18-1.47 11.18-1.53 1.35-11.71 1.41 11.71 11.18 1.53-11.18 1.47-1.41 11.71zm22.88 17.12l-2 16.65-2-16.65-15.82-2.12 15.82-2.12 2-16.65 2 16.65 15.88 2.12-15.88 2.12zM69.29 35.82c.04-2.67 1.04-5.21 2.88-7.53v-22.41c.12-.12.24-.18.35-.24-.24-.59-.35-1.18-.35-1.82-38 12.06-65.59 47.65-65.59 89.76 0 8.63 1.16 16.98 3.33 24.92 2.79-7.32 10.52-11.89 18.64-10.51 5.66.96 10.18 4.6 12.48 9.36l.83-1.62c-.96-7.25 1.58-15.89 12.6-24.7l.15-.29c-3.54-4.24-6.56-1.37-8.09-3.35-1.53-1.94 2.24-7.59 2.24-7.59.59-.82 1.47-1.47 2.47-1.53 2.94-.17 5.76 1.38 8.08 3.26l17.19-33.65c-1.15-.83-2.19-1.7-3.09-2.64-2.76-2.83-4.17-6.12-4.12-9.42zm-21.82 17.36c2.37 0 4.29 1.92 4.29 4.29s-1.92 4.29-4.29 4.29-4.29-1.92-4.29-4.29 1.92-4.29 4.29-4.29zm-24.65 37.17c-2.37 0-4.29-1.92-4.29-4.29s1.92-4.29 4.29-4.29 4.29 1.92 4.29 4.29-1.91 4.29-4.29 4.29zm15.59-16.06l-2.71 22.41-2.7-22.41-21.29-2.82 21.29-2.82 2.71-22.47 2.71 22.47 21.29 2.82-21.3 2.82z"/>
	</g>
	<g fill="#E6E7E8">
		<path d="M28.8 140.91c-1.88.33-3.84.37-5.83.03-1.58-.27-3.06-.76-4.44-1.41-.32-.15-.63-.31-.94-.48-.08 3.92.39 7.79 1.39 11.54l5.57-.85.52-.08 5.1-.78c-.76-2.38-1.23-4.9-1.34-7.52-.03-.16-.03-.31-.03-.45zM27.62 113.57c-6.12-1.04-11.91 3-12.93 9.02-.1.56-.13 1.12-.14 1.68-.05 3.23 1.34 6.25 3.67 8.35 1.54 1.39 3.48 2.38 5.69 2.76 1.84.31 3.65.16 5.31-.36 1.45-.46 2.79-1.2 3.93-2.17 1.31-1.12 2.36-2.54 3.03-4.19.3-.73.52-1.49.66-2.3.05-.32.09-.64.11-.97.46-5.66-3.54-10.84-9.33-11.82zM164.85 140.88c-.08 2.79-.56 5.46-1.36 7.98l4.84.74 6.34.97c1-3.74 1.47-7.62 1.39-11.53-1.62.89-3.41 1.54-5.34 1.87-2 .35-3.98.31-5.87-.03zM179 122.57c-1.02-6.02-6.81-10.06-12.93-9.02-4.44.76-7.82 3.98-8.95 7.99-.43 1.52-.55 3.14-.27 4.79.14.81.37 1.59.67 2.32.91 2.23 2.53 4.04 4.54 5.25.74.44 1.53.81 2.37 1.07 1.67.53 3.5.69 5.35.38 2.19-.37 4.12-1.35 5.65-2.72 2.36-2.11 3.77-5.16 3.71-8.42-.01-.55-.05-1.09-.14-1.64zM126.94 135.71l-14.47-.94c-1.71-.06-3.35-.53-4.88-1.35-4.35-2.24-6.94-6.88-6.65-11.76l.03-.38-2.69-.24-.04.56c-.24 3.29-1.71 6.29-4.18 8.47-2.47 2.18-5.65 3.24-8.94 3.06l-14.47-.94c-1.71-.12-3.35-.59-4.88-1.35-2.2-1.13-3.95-2.88-5.11-4.97-.04.73-.07 1.47-.07 2.21 0 12.99 6.5 24.46 16.43 31.34 1.63 1.13 3.36 2.15 5.16 3.02 1.45.7 2.96 1.3 4.5 1.81 2.4.8 4.91 1.36 7.5 1.67 1.49.18 3 .28 4.53.28l.59-.02c2.42-.04 4.79-.29 7.08-.76 2.19-.45 4.3-1.09 6.34-1.9 1.43-.57 2.82-1.21 4.16-1.93l.04-.02c.51-.28 1.01-.57 1.5-.86 9.99-6.05 16.98-16.56 18.21-28.77-.24.25-.48.49-.75.73-2.47 2.15-5.64 3.21-8.94 3.04zm-17.92 15.05l-.06.04-.2.13h-.01c-1.69 1.12-3.4 1.82-5.07 2.2-.36.08-.72.15-1.08.2-1.04.15-2.07.19-3.06.14-1.59-.08-3.11-.4-4.5-.83-2.04-.64-3.8-1.53-5.14-2.32-1.02-.58-2-1.25-2.91-1.98l-.42-.36c-3.6-3.02-6.2-6.99-6.99-11.4l38.88 1.76c-1.23 5.4-4.74 9.9-9.44 12.42zM87.12 102.41c6.64.41 11.93 6.52 11.53 13.1l2.69.24.01-.16c.41-6.82 6.29-11.94 13.12-11.53l14.47.94.12.01c-6.96-9.16-17.97-15.07-30.36-15.07-10.7 0-20.37 4.42-27.29 11.52.41-.02.82-.01 1.23.01l14.48.94z"/>
	</g>
	<g fill="#B1B3B3">
		<path d="M108.76 150.94l-.01.01.01-.01zM87.88 149l.35.23-.34-.25-.01.02zM103.72 144.56c-1.2-.68-2.58-1.2-4.19-1.5-3.74-.71-7.11-.3-9.32 1.72-.65.59-1.2 1.33-1.63 2.22 2.87 2.21 5.63 3.38 8.17 3.88l.18.03c4.76.88 8.69-.55 10.95-1.73l.14-.08c-.46-.92-1.02-1.76-1.69-2.5-.74-.79-1.61-1.48-2.61-2.04z"/>
	</g>
	<path d="M129.06 105.01l-.12-.01-14.47-.94c-6.82-.41-12.71 4.71-13.12 11.53l-.01.16-2.69-.24c.4-6.58-4.89-12.68-11.53-13.1l-14.47-.94c-.41-.02-.83-.02-1.23-.01-2.8.11-5.46 1.14-7.61 2.99l-.1.08c-1.96 1.73-3.28 3.97-3.86 6.47-.15.65-.27 1.32-.32 2l-.41 6.06c-.15 2.41.41 4.76 1.54 6.79 1.15 2.09 2.9 3.84 5.11 4.97 1.53.76 3.18 1.24 4.88 1.35l14.47.94c3.29.18 6.47-.88 8.94-3.06 2.47-2.18 3.94-5.18 4.18-8.47l.04-.56 2.69.24-.03.38c-.29 4.88 2.29 9.53 6.65 11.76 1.53.82 3.18 1.29 4.88 1.35l14.47.94c3.29.18 6.47-.88 8.94-3.06.26-.23.51-.48.75-.73 2.02-2.1 3.22-4.8 3.43-7.75l.41-6.06c.41-6.52-4.82-12.6-11.41-13.08zm-38.59 20.87c-1.35 1.24-3.12 1.82-4.94 1.71l-14.47-.94c-3.76-.24-6.65-3.59-6.41-7.24l.41-6.06c.12-1.82.94-3.53 2.29-4.71 1.35-1.24 3.12-1.82 4.94-1.71l14.47.94c.94.06 1.88.35 2.71.76 2.41 1.29 3.88 3.82 3.71 6.47l-.41 6.06c-.12 1.84-.95 3.49-2.3 4.72zm44.53-8.06l-.41 6.06c-.12 1.82-.94 3.47-2.29 4.71-1.35 1.24-3.12 1.82-4.94 1.71l-14.47-.94c-3.71-.29-6.65-3.65-6.41-7.29l.41-6.06c.24-3.76 3.47-6.65 7.24-6.41l14.47.94c.94.06 1.88.35 2.71.76 1.39.71 2.43 1.88 3.06 3.25.19.42.35.85.46 1.29.13.64.2 1.31.17 1.98z"/>
	<g fill="#373737">
		<path d="M184.62 121.61c-1.55-9.1-10.28-15.2-19.5-13.63-4.5.77-8.28 3.22-10.8 6.59-2.64 3.53-3.9 8.06-3.1 12.72.85 5.02 3.9 9.11 8 11.53.46 9.67-4.98 17.89-11.99 22.6-4.29 2.84-10.38 3.6-17.02 2.78l-.44-2.63c6.35-5.87 11.12-13.6 13.35-22.63 2.06-8.29 1.71-16.59-.65-24.18-3.12-10.25-9.81-19.25-19-25.16-18.31-40.01-50.74-14.76-61.12-5.15-.85-.94-1.88-1.96-3.04-2.91-2.32-1.88-5.14-3.43-8.08-3.26-1 .06-1.88.71-2.47 1.53 0 0-3.76 5.65-2.24 7.59 1.53 1.97 4.55-.89 8.09 3.35l.09.1-.23.18c-11.02 8.8-13.56 17.45-12.6 24.7 1.48 11.17 11.3 19.03 11.3 19.03l.13-.91c1.45 11.21 7.02 21.48 15.51 28.81l-.16.61c-8.58 1.98-16.8 1.7-22.18-1.87-7.01-4.7-12.45-12.92-11.99-22.59 4.09-2.41 7.13-6.5 7.98-11.51.6-3.51.03-6.95-1.42-9.95-2.3-4.76-6.82-8.4-12.48-9.36-8.12-1.38-15.85 3.19-18.64 10.51-.38.99-.67 2.04-.86 3.12-.8 4.68.48 9.23 3.14 12.77-2.11 17.65 5.75 35.13 21.68 45.78 2.24 1.47 4.65 2.82 7.12 3.94 6.46 2.97 13.63 4.71 20.77 5.12l-2.71 10.23h77.06l-1.75-10.43c6.33-.63 12.61-2.29 18.33-4.92 2.47-1.12 4.88-2.47 7.12-3.94 14.06-9.4 21.83-24.12 22.01-39.59.02-2.07-.09-4.15-.34-6.23 2.66-3.53 3.93-8.07 3.13-12.74zm-159.56 28.04l-.52.08-5.57.85c-1-3.74-1.47-7.62-1.39-11.54.31.17.62.33.94.48 1.38.65 2.86 1.14 4.44 1.41 1.99.34 3.96.3 5.83-.03l.01.44c.12 2.62.59 5.13 1.34 7.52l-5.08.79zm8.09-16.81c-1.14.98-2.48 1.71-3.93 2.17-1.66.52-3.47.68-5.31.36-2.21-.38-4.15-1.37-5.69-2.76-2.33-2.1-3.72-5.12-3.67-8.35.01-.56.04-1.12.14-1.68 1.02-6.02 6.81-10.06 12.93-9.02 5.79.98 9.79 6.16 9.33 11.82-.03.32-.06.64-.11.97-.14.8-.36 1.57-.66 2.3-.67 1.64-1.72 3.07-3.03 4.19zm85.27 27.85c-.49.3-.99.59-1.5.86l-.04.02c-1.34.73-2.73 1.37-4.16 1.93-2.03.8-4.15 1.45-6.34 1.9-2.29.47-4.66.72-7.08.76l-.59.02c-1.53 0-3.04-.1-4.53-.28-2.59-.31-5.09-.87-7.5-1.67-1.54-.51-3.05-1.11-4.5-1.81-1.81-.87-3.53-1.89-5.16-3.02-9.92-6.88-16.43-18.35-16.43-31.34 0-.74.03-1.48.07-2.21-1.12-2.03-1.68-4.38-1.54-6.79l.41-6.06c.05-.68.16-1.35.32-2 .58-2.5 1.9-4.75 3.86-6.47l.1-.08c2.14-1.85 4.8-2.88 7.61-2.99 6.92-7.1 16.59-11.52 27.29-11.52 12.39 0 23.4 5.92 30.36 15.07 6.59.48 11.82 6.56 11.41 13.1l-.41 6.06c-.21 2.94-1.41 5.65-3.43 7.75-1.24 12.21-8.23 22.72-18.22 28.77zm56.26-10.11l-6.34-.97-4.84-.74c.8-2.52 1.28-5.2 1.36-7.98v-.01c1.89.34 3.87.38 5.87.04 1.93-.33 3.72-.98 5.34-1.87.08 3.91-.39 7.79-1.39 11.53zm.75-17.95c-1.53 1.37-3.46 2.35-5.65 2.72-1.86.32-3.68.16-5.35-.38-.83-.27-1.63-.63-2.37-1.07-2.01-1.21-3.62-3.02-4.54-5.25-.3-.73-.53-1.51-.67-2.32-.28-1.65-.16-3.28.27-4.79 1.13-4.01 4.52-7.24 8.95-7.99 6.12-1.04 11.91 3 12.93 9.02.09.55.13 1.1.14 1.64.06 3.26-1.35 6.31-3.71 8.42zM86.58 147.99l.42.36c.92.73 1.89 1.39 2.91 1.98 1.33.8 3.1 1.69 5.14 2.32 1.39.43 2.91.75 4.5.83.99.05 2.02.01 3.06-.14.36-.05.71-.12 1.08-.2 1.67-.38 3.38-1.08 5.07-2.2l.01-.01.2-.13.06-.04c4.7-2.53 8.21-7.02 9.45-12.41l-38.88-1.76c.78 4.41 3.38 8.38 6.98 11.4zm3.63-3.21c2.21-2.02 5.57-2.43 9.32-1.72 1.62.3 2.99.82 4.19 1.5 1 .56 1.87 1.25 2.59 2.04.68.74 1.24 1.58 1.69 2.5l-.14.08c-2.26 1.18-6.19 2.61-10.95 1.73l-.18-.03c-2.54-.5-5.3-1.67-8.17-3.88.45-.9 1-1.63 1.65-2.22zm-2.32 4.2l.34.25-.35-.23.01-.02zM84.24 118.82l-.47 4.47 4.53.53.53-4.29c.64-5.53-3.3-10.53-8.83-11.18-5.53-.65-10.53 3.29-11.18 8.82l-.59 4.24 3.88.53.59-4.24c.24-2.35 2.18-5.47 6.35-5.24 3.77.19 5.6 2.83 5.19 6.36zM120.88 111.71c-5.53-.65-10.53 3.29-11.18 8.82l-.53 4.29 3.88.53.53-4.29c.24-2.35 2.18-5.47 6.35-5.24 3.76.18 5.59 2.82 5.18 6.35l-.47 4.47 4.53.53.53-4.29c.65-5.53-3.29-10.53-8.82-11.17z"/>
	</g>
	<path fill="#808184" d="M134 5.65c-10.41-4-21.71-6.18-33.53-6.18-7.88 0-15.53 1-22.88 2.82-1.82.47-3.65.94-5.41 1.53 0 .65.12 1.24.35 1.82-.12.06-.24.12-.35.24v22.41c.96-1.2 2.12-2.35 3.53-3.41l.88-.59c6.18-4.29 15.59-6.71 25.94-6.71h1.06c9.12.18 17.82 2.29 23.94 5.88h.41l.71.59c2.31 1.46 4.19 3.11 5.59 4.87v-23.16c-.06-.05-.18-.11-.24-.11z"/>
	<g fill="#FFCE13">
		<path d="M117.59 37.18c-1.88-1.06-6.94-2.53-14.65-2.53s-12.76 1.41-14.65 2.53c1.88 1.06 6.94 2.53 14.65 2.53 7.65 0 12.77-1.47 14.65-2.53zM125.88 29.35h-.06l-.71-.47c-5.29-3.29-13.24-5.29-21.71-5.41h-1c-9.41 0-18.06 2.29-23.18 6.06l-.71.59c-2.29 1.94-3.35 3.88-3.41 5.82-.06 1.76.76 3.53 2.47 5.24 1.93 2.01 4.79 3.73 8.23 5.08 4.84 1.9 10.83 3.05 17.12 3.15h1.24c9.52 0 17.21-2.27 21.94-5.37 3.25-2.13 5.1-4.65 5.17-7.1.02-2.59-1.86-5.29-5.39-7.59zm-44.06 7.83c0-6.24 11.35-8.41 21.06-8.41 9.71 0 21.06 2.18 21.06 8.41s-11.29 8.41-21.06 8.41c-9.7 0-21.06-2.18-21.06-8.41z"/>
	</g>
	<path fill="#6D6E70" d="M134.24 28.93c-1.4-1.77-3.27-3.41-5.59-4.87l-.71-.59h-.41c-6.12-3.59-14.82-5.71-23.94-5.88h-1.06c-10.35 0-19.76 2.41-25.94 6.71l-.88.59c-1.41 1.06-2.57 2.21-3.53 3.41-1.84 2.32-2.84 4.86-2.88 7.53-.06 3.29 1.35 6.59 4.12 9.41.89.94 1.94 1.82 3.09 2.64 6.21 4.46 15.91 7.22 26.38 7.42h1.29c9.72 0 18.23-2.14 24.17-5.68 5.42-3.23 8.71-7.62 8.83-12.61.07-2.84-.96-5.58-2.94-8.08zm-31.3 20.48c-6.29-.1-12.29-1.26-17.12-3.15-3.44-1.35-6.3-3.08-8.23-5.08-1.71-1.71-2.53-3.47-2.47-5.24.06-1.94 1.12-3.88 3.41-5.82l.71-.59c5.12-3.76 13.76-6.06 23.18-6.06h1c8.47.12 16.41 2.12 21.71 5.41l.71.47h.06c3.53 2.29 5.41 5 5.41 7.59-.07 2.44-1.92 4.97-5.17 7.1-4.73 3.1-12.43 5.37-21.94 5.37h-1.26z"/>
	<g fill="#FFE99E">
		<path d="M159.23 138.82c-4.1-2.41-7.15-6.51-8-11.53-.79-4.66.46-9.19 3.1-12.72l-25.98-64.96c-5.94 3.54-14.45 5.68-24.17 5.68h-1.29c-10.47-.2-20.17-2.96-26.38-7.42l-17.19 33.69c1.16.94 2.18 1.97 3.04 2.91 10.37-9.61 42.8-34.87 61.12 5.15 9.19 5.91 15.88 14.91 19 25.16 2.35 7.59 2.71 15.88.65 24.18-2.23 9.02-7 16.75-13.35 22.63l.44 2.63c6.64.81 12.74.06 17.02-2.78 7.01-4.73 12.44-12.96 11.99-22.62zM53.3 133.86l-.13.91s-9.82-7.85-11.3-19.03l-.83 1.62c1.44 3 2.01 6.43 1.42 9.95-.85 5.01-3.89 9.1-7.98 11.51-.45 9.66 4.98 17.88 11.99 22.59 5.38 3.57 13.6 3.85 22.18 1.87l.16-.61c-8.48-7.33-14.06-17.61-15.51-28.81zM54.62 90.76l-.15.29.23-.18-.08-.11zM102.88 45.59c9.76 0 21.06-2.18 21.06-8.41s-11.35-8.41-21.06-8.41c-9.71 0-21.06 2.18-21.06 8.41s11.36 8.41 21.06 8.41zm.06-10.94c7.71 0 12.76 1.47 14.65 2.53-1.88 1.06-7 2.53-14.65 2.53-7.71 0-12.76-1.47-14.65-2.53 1.89-1.12 6.95-2.53 14.65-2.53z"/>
	</g>
	<g fill="#fff">
		<path d="M89.47 108.65c-.82-.41-1.76-.71-2.71-.76l-14.47-.94c-1.82-.12-3.59.47-4.94 1.71-1.35 1.18-2.18 2.88-2.29 4.71l-.41 6.06c-.24 3.65 2.65 7 6.41 7.24l14.47.94c1.82.12 3.59-.47 4.94-1.71 1.35-1.24 2.18-2.88 2.29-4.71l.41-6.06c.18-2.66-1.29-5.19-3.7-6.48zm-.65 10.88l-.53 4.29-4.53-.53.47-4.47c.41-3.53-1.41-6.18-5.18-6.35-4.18-.24-6.12 2.88-6.35 5.24l-.59 4.24-3.88-.53.59-4.24c.65-5.53 5.65-9.47 11.18-8.82 5.53.64 9.47 5.64 8.82 11.17zM134.35 114.54c-.62-1.37-1.67-2.54-3.06-3.25-.82-.41-1.76-.71-2.71-.76l-14.47-.94c-3.76-.24-7 2.65-7.24 6.41l-.41 6.06c-.24 3.65 2.71 7 6.41 7.29l14.47.94c1.82.12 3.59-.47 4.94-1.71 1.35-1.24 2.18-2.88 2.29-4.71l.41-6.06c.03-.68-.04-1.34-.19-1.99-.09-.43-.25-.86-.44-1.28zm-4.64 8.34l-.53 4.29-4.53-.53.47-4.47c.41-3.53-1.41-6.18-5.18-6.35-4.18-.24-6.12 2.88-6.35 5.24l-.53 4.29-3.88-.53.53-4.29c.65-5.53 5.65-9.47 11.18-8.82 5.52.64 9.46 5.64 8.82 11.17zM35.71 46.18l-2.71 22.47-21.29 2.82 21.29 2.82 2.71 22.42 2.7-22.42 21.3-2.82-21.3-2.82zM170.35 84l-2-16.65-2 16.65-15.82 2.12 15.82 2.12 2 16.64 2-16.64 15.89-2.12zM148.88 56.41l-1.41-11.7-1.35 11.7-11.18 1.53 11.18 1.47 1.35 11.71 1.41-11.71 11.18-1.47z"/>
		<circle cx="47.47" cy="57.47" r="4.29"/>
		<circle cx="158" cy="46.88" r="4.29"/>
		<circle cx="22.82" cy="86.06" r="4.29"/>
	</g>
</svg>