<svg baseProfile="tiny" xmlns="http://www.w3.org/2000/svg" viewBox="0 0 200 200"><g fill="#BBD758"><path d="M105.17 199.63h-12.28c3.97 1.36 8.31 1.36 12.28 0zM117.27 133.77c.22 1.16.41 2.37.57 3.6-.15-1.23-.35-2.43-.57-3.6zM184.91 44.29l-76.87-41.62c-5.59-3.03-12.43-3.03-18.01 0l-76.88 41.62c-5.53 3.03-8.98 8.62-8.98 14.62v83.23c0 6.06 3.39 11.59 8.98 14.62l16.13 8.73c-10.23-13.06-16.25-28.98-16.25-46.13 0-23.71 11.5-45.06 29.74-59.77.17-8.06 6.75-14.54 14.85-14.54h10.93c5.08-1.87 10.39-3.34 15.89-4.34.69-7.56 7.05-13.49 14.79-13.49 8.2 0 14.86 6.66 14.86 14.86v2.97h26.75c8.2 0 14.86 6.66 14.86 14.86v101.45c11.05-11.22 17.78-25.91 17.78-42 0-.59-.18-6.78 3.33-10.4 3.15-3.27 8.98-3.27 11.95.06 3.27 3.69 2.68 9.93 2.62 10.64 0 14.6-4.42 28.33-12.12 40.15l5.64-3.05c5.59-2.97 9.04-8.56 8.98-14.62v-83.23c0-6.06-3.39-11.59-8.97-14.62zM42.76 154.59v-70.17c-8.06 9.77-11.95 21.18-11.95 34.95 0 13.01 4.41 25.12 11.95 35.22zM135.2 143.33c0-1.68-.12-3.33-.34-4.95.23 1.62.34 3.27.34 4.95zM134.87 138.38c-.22-1.62-.55-3.2-.99-4.74.43 1.54.76 3.12.99 4.74z"/></g><g fill="#DBDBDB"><path d="M184.31 113.01c-.48-.54-2.2-.89-3.21.12-1.37 1.43-1.72 4.76-1.66 6.12 0 19.71-9.11 37.51-23.72 50.21v6.77c3.74-2.81 7.21-5.91 10.35-9.26 12.09-12.9 19.38-29.5 19.38-47.59.17-1.73.11-5.06-1.14-6.37zM18.98 119.37c0 20.19 9.08 38.52 23.78 51.93v-7.43c-11.17-12.07-17.89-27.59-17.89-44.5 0-16.76 5.17-30.38 15.87-41.67.1-.15.78-1.08 2.02-2.5v-7.76c-14.7 13.41-23.78 31.74-23.78 51.93z"/></g><g fill="#A6A8AB"><path d="M63.57 143.33c0-19.8 16.05-35.85 35.85-35.85 7.85 0 15.1 2.56 20.93 6.84l13.1-15.75h-84.75v86.2c0 3.87 2.46 7.15 5.9 8.38l3.41-4.1 1.92-2.31 1.98-2.38.69-.83 2.54-3.06 1.96-2.36 1.96-2.36 5.56-6.68c-6.83-6.48-11.05-15.63-11.05-25.74zM135.15 144.22c-.36 17.06-12.72 31.15-29.01 34.18l-3.94 4.64-2.48 2.92-2.45 2.88-3.77 4.44-.35.41h47.71c3.98 0 7.34-2.6 8.49-6.19.27-.86.43-1.77.43-2.73v-57.69l-14.63 17.14z"/></g><path fill="#009435" d="M140.85 51h-26.75v8.92c0 .63-.05 1.24-.13 1.85 1.95 2.86 3.1 6.32 3.1 10.04 0 9.85-7.99 17.84-17.84 17.84s-17.83-7.99-17.83-17.84c0-3.73 1.15-7.18 3.1-10.04-.08-.61-.13-1.22-.13-1.85v-8.92h-26.75c-1.05 0-2.05.19-2.98.52-1.12.4-2.13 1.01-2.99 1.79-1.52 1.37-2.56 3.26-2.85 5.4-.05.4-.09.8-.09 1.22v32.7h101.07v-32.7c-.01-4.94-3.99-8.93-8.93-8.93z"/><path fill="#E6E7E8" d="M108 40.45c-.77-4.15-4.39-7.28-8.76-7.28-4.14 0-7.6 2.81-8.61 6.62-.19.73-.31 1.5-.31 2.3v17.84c0 4.93 3.98 8.92 8.92 8.92s8.92-3.98 8.92-8.92v-17.84c0-.56-.06-1.11-.16-1.64z"/><g fill="#4B4E49"><path d="M112.44 121.81c.3.18.59.48.89.83l7.02-8.32c-5.83-4.28-13.08-6.84-20.93-6.84-19.8 0-35.85 16.05-35.85 35.85 0 10.11 4.22 19.26 11.06 25.74l8.74-10.4c-4.76-5.95-5.77-14.45-1.72-21.4 1.13-1.9 2.73-3.63 3.09-3.98.24-.24 1.31.48.95 1.01-1.72 6.18-.89 10.46 1.19 14.57.18.06.95.42 1.07.12.42-12.72 7.07-20.63 14.98-26.04 4.45-1.38 8.2-1.85 9.51-1.14zM106.13 178.41c16.29-3.03 28.65-17.12 29.01-34.18l-29.01 34.18z"/></g><path fill="#A4CC40" d="M112.44 121.81c-1.31-.71-5.05-.24-9.51 1.13-7.91 5.41-14.57 13.32-14.98 26.04-.12.3-.89-.06-1.07-.12-2.08-4.1-2.91-8.38-1.19-14.57.36-.54-.71-1.25-.95-1.01-.36.36-1.96 2.08-3.09 3.98-4.04 6.96-3.03 15.46 1.72 21.4l29.96-36.03c-.3-.34-.6-.64-.89-.82z"/><path fill="#5B5E58" d="M104.71 178.7c.48-.06.95-.18 1.43-.3l29.01-34.18.05-.36.01-.36v-.18c0-4.48-.82-8.77-2.32-12.72-.5-1.32-1.08-2.6-1.72-3.83-2.59-4.95-6.3-9.21-10.82-12.45l-7.02 8.32c1.42 1.86 2.98 6.09 3.94 11.13.22 1.16.41 2.37.57 3.6.1.82.18 1.65.25 2.48.06.83.11 1.67.13 2.51.02.84.02 1.68-.01 2.51-.03.83-.08 1.65-.17 2.47s-.19 1.61-.33 2.39-.31 1.54-.52 2.28c-.21.74-.44 1.45-.72 2.14-.27.69-.59 1.34-.93 1.96-5.17 9.33-17 12.72-26.34 7.49-2.32-1.25-4.28-2.97-5.83-4.93l-8.74 10.4c6.42 6.24 15.1 10.05 24.79 10.05 1.78 0 3.56-.12 5.29-.42zM106.13 178.41l29.02-34.19-29.02 34.19zM104.71 178.7c.48-.06.95-.18 1.43-.3-.48.12-.96.24-1.43.3z"/><path fill="#B4DB53" d="M118.09 139.85c-.06-.83-.15-1.66-.25-2.48-.15-1.23-.34-2.43-.57-3.6-.97-5.04-2.52-9.27-3.94-11.13l-29.96 36.03c1.55 1.96 3.51 3.69 5.83 4.93 9.33 5.23 21.16 1.84 26.34-7.49.35-.62.66-1.28.93-1.96.27-.69.51-1.4.72-2.14.21-.74.38-1.5.52-2.28s.25-1.58.33-2.39.14-1.64.17-2.47c.03-.83.03-1.67.01-2.51-.03-.83-.07-1.67-.13-2.51z"/><g fill="#B5B7BA"><path d="M99.42 179.12c-9.69 0-18.37-3.8-24.79-10.05l-5.56 6.68-1.96 2.36-1.96 2.36-2.54 3.06-.69.83-1.98 2.38-1.92 2.31-3.41 4.1c.94.34 1.96.53 3.02.53h35.52l.35-.41 3.77-4.44 2.45-2.88 2.48-2.92 3.94-4.64c-.48.12-.95.24-1.43.3-1.73.31-3.51.43-5.29.43zM133.45 98.56l-13.1 15.75c4.52 3.24 8.23 7.51 10.82 12.45.65 1.24 1.22 2.52 1.72 3.83 1.5 3.95 2.32 8.24 2.32 12.72v.18l-.01.36-.05.36 14.62-17.14v-28.51h-16.32z"/></g><path fill="#373737" d="M188.77 109.03c-2.97-3.33-8.8-3.33-11.95-.06-3.51 3.63-3.33 9.81-3.33 10.4 0 16.09-6.72 30.79-17.78 42v-101.45c0-8.2-6.66-14.86-14.86-14.86h-26.75v-2.97c0-8.2-6.66-14.86-14.86-14.86-7.74 0-14.1 5.93-14.79 13.49-5.5 1-10.81 2.47-15.89 4.34h-10.94c-8.1 0-14.68 6.49-14.85 14.54-18.24 14.71-29.74 36.06-29.74 59.77 0 17.15 6.02 33.07 16.25 46.13 3.91 4.99 8.43 9.56 13.47 13.63v5.64c0 8.2 6.66 14.86 14.86 14.86h83.23c8.2 0 14.86-6.66 14.86-14.86v-1.2c9.5-6.42 17.53-14.5 23.55-23.75 7.7-11.82 12.12-25.55 12.12-40.15.07-.71.67-6.96-2.6-10.64zm-33.05 67.2v-6.77c14.61-12.69 23.72-30.5 23.72-50.21-.06-1.37.3-4.7 1.66-6.12 1.01-1.01 2.73-.65 3.21-.12 1.25 1.31 1.31 4.64 1.13 6.36 0 18.09-7.29 34.69-19.38 47.59-3.14 3.36-6.6 6.46-10.34 9.27zm-5.95 8.54c0 .95-.15 1.87-.43 2.73-1.15 3.6-4.51 6.19-8.49 6.19h-83.23c-1.06 0-2.07-.19-3.02-.53-3.44-1.24-5.9-4.51-5.9-8.38v-86.2h101.07v86.19zm-107.01-117.33v7.76c-1.24 1.42-1.92 2.35-2.02 2.5-10.7 11.3-15.87 24.91-15.87 41.67 0 16.91 6.73 32.43 17.89 44.5v7.43c-14.7-13.41-23.78-31.74-23.78-51.93s9.08-38.52 23.78-51.93zm8.89-14.13c.86-.78 1.88-1.39 2.99-1.79.93-.33 1.93-.52 2.98-.52h26.75v8.92c0 .63.05 1.24.13 1.85-1.95 2.86-3.1 6.32-3.1 10.04 0 9.85 7.99 17.84 17.84 17.84s17.84-7.99 17.84-17.84c0-3.73-1.15-7.18-3.1-10.04.08-.61.13-1.22.13-1.85v-8.92h26.75c4.93 0 8.92 3.98 8.92 8.92v32.7h-101.08v-32.7c0-.41.04-.82.09-1.22.3-2.13 1.34-4.02 2.86-5.39zm38.67-11.22c0-.8.11-1.56.31-2.3 1.01-3.82 4.47-6.62 8.61-6.62 4.38 0 8 3.13 8.76 7.28.1.53.16 1.08.16 1.63v17.84c0 4.93-3.98 8.92-8.92 8.92s-8.92-3.98-8.92-8.92v-17.83zm-47.56 112.5c-7.54-10.1-11.95-22.21-11.95-35.22 0-13.77 3.89-25.18 11.95-34.95v70.17z"/></svg>