<svg baseProfile="tiny" xmlns="http://www.w3.org/2000/svg" viewBox="0 0 200 200"><g fill="#64C9D7"><path d="M136.65 7.53v23.31c1.91 2.47 2.92 5.17 2.88 7.98-.11 4.97-3.4 9.34-8.82 12.56l7.46 18.64c3.74-.4 7.61-.23 11.36.28l-1.05-9.13-11.18-1.53 11.18-1.47 1.35-11.71 1.41 11.71 11.18 1.47-11.18 1.53-1.11 9.21c7.8 1.14 15 3.68 19.34 5.45 1.43-3.53 4.11-8.39 8.36-9.66.94-.29 2 0 2.82.59 0 0 5.47 4 4.71 6.35-.8 2.44-4.62.71-6.49 6.06 9.31 3.09 14.79 7.49 17.82 12.28-1.56-38.36-26.01-70.83-60.04-83.92zM71.65 37.59c.04-2.67 1.04-5.24 2.88-7.56v-22.38c.12-.12.24-.18.35-.24-.23-.58-.35-1.17-.35-1.8-37.97 12.07-65.53 47.65-65.53 89.74 0 20.82 6.76 40.12 18.18 55.71l4.77-9.35 24.89-67.78-16.08 2.13-2.71 22.41-2.71-22.41-21.29-2.82 21.29-2.82 2.71-22.47 2.71 22.47 16.56 2.2 3.2-8.73 9.36 3.44 9-17.65c-1.17-.84-2.23-1.72-3.13-2.67-2.75-2.83-4.16-6.13-4.1-9.42zM44.47 169.06l.69.28c-1.22-.85-2.41-1.75-3.56-2.68.94.81 1.9 1.62 2.87 2.4z"/></g><path fill="#ADDFE6" d="M45.16 169.34c8.94 6.25 19.69 10.45 30.69 12.96-1.12-1.32-2.16-2.7-3.12-4.13-10.41-2.47-19.82-5.71-27.57-8.83zM66.22 163.87c-3.77-2.31-6.62-6.06-7.61-10.69-.11-.52-.19-1.05-.25-1.57l-26.47-9.73.06-.17-4.77 9.35c4.2 5.71 9.05 10.94 14.43 15.6 1.15.93 2.34 1.82 3.56 2.68 7.75 3.12 17.16 6.36 27.57 8.83-2.94-4.33-5.15-9.14-6.52-14.3zM95.72 64.19c9.22-1.57 17.95 4.53 19.5 13.63.36 2.09.28 4.16-.13 6.12l2.33.86c4.24-9.9 12.16-13.85 20.75-14.78l-7.46-18.64c-5.95 3.53-14.46 5.68-24.18 5.68h-1.29c-10.45-.2-20.13-2.95-26.34-7.39l-9 17.65 13.92 5.12c2.43-4.21 6.68-7.36 11.9-8.25zM111.55 162.91l-2.66 7.27-18.8-6.91c3.79 7.11 10.82 11.55 17.98 13.09 3.95.83 8.45.06 13.03-1.84l1.89-11.31-11.44-.3z"/><g fill="#3CBFD1"><path d="M128.35 31.12h-.06l-.71-.47c-5.29-3.29-13.24-5.29-21.71-5.41h-.94c-9.41 0-18.06 2.29-23.18 6.06l-.88.59c-2.29 2-3.35 3.88-3.35 5.82-.06 1.76.76 3.53 2.47 5.24 1.94 2.02 4.82 3.75 8.28 5.1 4.83 1.89 10.81 3.03 17.07 3.13h1.24c9.47 0 17.16-2.25 21.9-5.33 3.29-2.14 5.17-4.68 5.21-7.14.07-2.59-1.87-5.24-5.34-7.59zm-44.17 7.82c0-6.24 11.35-8.41 21.06-8.41s21.06 2.18 21.06 8.41-11.29 8.41-21.06 8.41c-9.71 0-21.06-2.17-21.06-8.41zM119.94 38.94c-1.88-1.06-6.94-2.53-14.65-2.53s-12.82 1.41-14.65 2.53c1.88 1.06 6.94 2.53 14.65 2.53s12.77-1.47 14.65-2.53z"/></g><path fill="#6D6E70" d="M136.65 30.84l-.06-.07c-1.41-1.8-3.3-3.47-5.65-4.95l-.71-.59h-.35c-6.12-3.59-14.82-5.71-23.94-5.88h-1.06c-10.35 0-19.76 2.41-25.94 6.71l-.88.59c-1.38 1.02-2.53 2.14-3.47 3.31l-.06.07c-1.84 2.32-2.84 4.88-2.88 7.56-.06 3.29 1.35 6.59 4.11 9.41.9.95 1.96 1.84 3.13 2.67 6.21 4.44 15.89 7.19 26.34 7.39h1.29c9.72 0 18.23-2.14 24.18-5.68 5.42-3.22 8.71-7.59 8.82-12.56.04-2.8-.96-5.51-2.87-7.98zm-31.3 20.34c-6.27-.1-12.25-1.25-17.07-3.13-3.46-1.35-6.34-3.09-8.28-5.1-1.71-1.71-2.53-3.47-2.47-5.24 0-1.94 1.06-3.82 3.35-5.82l.88-.59c5.12-3.76 13.76-6.06 23.18-6.06h.94c8.47.12 16.41 2.12 21.71 5.41l.71.47h.06c3.47 2.35 5.41 5 5.35 7.59-.05 2.46-1.92 5-5.21 7.14-4.74 3.08-12.43 5.33-21.9 5.33h-1.25z"/><path fill="#9CDDE6" d="M105.24 30.53c-9.71 0-21.06 2.18-21.06 8.41s11.35 8.41 21.06 8.41c9.76 0 21.06-2.18 21.06-8.41s-11.36-8.41-21.06-8.41zm.05 10.94c-7.71 0-12.76-1.47-14.65-2.53 1.82-1.12 6.94-2.53 14.65-2.53s12.76 1.47 14.65 2.53c-1.88 1.06-6.94 2.53-14.65 2.53z"/><g fill="#fff"><path d="M56.84 73.93l.48-1.32-16.56-2.2-2.7-22.47-2.71 22.47-21.29 2.83 21.29 2.82 2.71 22.41 2.7-22.41zM149.82 46.47l-1.35 11.71-11.18 1.47 11.18 1.53 1.05 9.13.6.08 1.11-9.21 11.18-1.53-11.18-1.47-1.41-11.71z"/><circle cx="49.82" cy="59.24" r="4.29"/><circle cx="160.35" cy="48.65" r="4.29"/><circle cx="25.18" cy="87.82" r="4.29"/><path d="M68.75 109.94l3.62-.12c-.72-2.01-1.41-4.03-2.08-6.05l-1.54 6.17zM64.65 126.35c-.2.66-.59 1.21-1.08 1.6 4.98-1.09 10.04-1.8 15.13-2.13l-.16-.29c-1.4-3.26-2.73-6.57-4.01-9.89l-7.26.25-2.62 10.46zM112.88 89.41c-2.48 3.94-6.57 6.87-11.56 7.72-9.22 1.57-17.96-4.53-19.5-13.63-.32-1.87-.29-3.73.01-5.5l-14.64-5.38-3.13-1.15-9.56 26.03-15.03 40.91 19.34 7.11c1.58-5.94 6.4-10.82 12.89-12.21 9.15-1.95 18.13 3.79 20.05 12.81.82 3.86.21 7.69-1.46 10.96l3.42 1.26 10.47-26.8c-.64.92-1.77 1.46-2.94 1.28-14.76-2.47-30.12-1.47-44.35 3-.29.06-.59.12-.88.12-1.24 0-2.41-.82-2.82-2.06-.47-1.53.35-3.18 1.94-3.71 1.99-.62 4-1.17 6.02-1.67l-.14-.04c-1.59-.41-2.53-2-2.12-3.59l2.51-10c-.37-.47-.61-1.05-.63-1.7-.04-1.26.7-2.34 1.77-2.81l4.59-18.25c.35-1.29 1.47-2.18 2.82-2.24 1.41.12 2.53.82 2.88 2.12 3.06 10.59 6.76 21.06 11.12 31.18.35.8.29 1.69-.07 2.44 6.14-.09 12.29.36 18.36 1.39 1.55.29 2.65 1.7 2.42 3.31l5.53-14.15.23-.87c.68-2.24 1.56-4.41 2.57-6.52.1-.43.45-1.73 1.23-3.57-.12-5.77.38-10.67 1.37-14.8l-2.71-.99zm-8.7 25.65c-.35 1.35-1.53 2.24-2.88 2.24-.24 0-.47 0-.71-.06-1.67-.42-3.8-.81-6.02-1.19l-.74 7.01c-.18 1.47-1.47 2.59-2.94 2.59h-.29c-1.65-.18-2.76-1.65-2.59-3.24l.78-7.35c-2.27-.39-4.41-.77-6.13-1.18-1.59-.35-2.53-1.94-2.18-3.53.35-1.59 1.94-2.53 3.53-2.18 1.51.38 3.39.73 5.39 1.08l.73-6.9c.18-1.65 1.71-2.82 3.24-2.59 1.65.18 2.76 1.65 2.59 3.24l-.76 7.23c2.53.43 4.93.85 6.82 1.3 1.57.35 2.51 1.94 2.16 3.53z"/></g><g fill="#808184"><path d="M136.35 7.41c-10.41-4-21.71-6.18-33.53-6.18-7.88 0-15.53 1-22.88 2.82-1.82.48-3.65.95-5.41 1.54v.02c0 .64.12 1.22.35 1.8-.12.06-.24.12-.35.24v22.38l.06-.07c.95-1.18 2.09-2.29 3.47-3.31l.88-.59c6.18-4.29 15.59-6.71 25.94-6.71h1.06c9.12.18 17.82 2.29 23.94 5.88h.35l.71.59c2.34 1.48 4.24 3.15 5.65 4.95v-23.24c-.06-.06-.18-.12-.24-.12zM60.53 63.88l-3.2 8.73-.48 1.32-24.89 67.78-.06.17 26.47 9.73c-.12-1.06-.13-2.12-.05-3.15.08-1 .25-1.98.51-2.94l-19.34-7.11 15.01-40.91 9.56-26.03 3.13 1.15 14.64 5.38c.16-.98.41-1.93.74-2.85.34-.94.76-1.85 1.25-2.71l-13.92-5.12-9.37-3.44zM114.22 86.8c-.37.91-.82 1.79-1.34 2.62l2.7.99c.24-.98.5-1.92.8-2.82.32-.97.66-1.91 1.04-2.79l-2.33-.86c-.2.99-.49 1.94-.87 2.86zM96.55 162.53l-4.43-.11.52-1.33 1.07-2.74-3.42-1.26c-.46.89-1 1.74-1.6 2.54l-.11.16c.42 1.22.93 2.38 1.51 3.48l18.8 6.91 2.66-7.27-3.14-.08-11.86-.3z"/></g><path fill="#231F20" d="M196.68 91.46c-3.04-4.78-8.51-9.19-17.82-12.28 1.87-5.35 5.7-3.62 6.49-6.06.76-2.35-4.71-6.35-4.71-6.35-.82-.59-1.88-.88-2.82-.59-4.25 1.27-6.93 6.13-8.36 9.66-4.34-1.77-11.54-4.31-19.34-5.45l-.6-.08c-3.75-.51-7.61-.68-11.36-.28-8.59.92-16.51 4.88-20.75 14.78-.38.88-.72 1.81-1.04 2.79-.29.9-.56 1.83-.8 2.82-1 4.13-1.49 9.03-1.37 14.8 1.33-3.15 3.92-7.82 8.64-12.13.8-.73 1.66-1.45 2.59-2.15.94-.71 1.94-1.4 3.02-2.06 3.96-2.42 8.89-4.43 15.02-5.57 1.59-.29 3.24-.54 4.99-.71.06 0 32.91-3.35 43.9 20.7 1.26 1.9 2.38 3.91 3.36 6.01.5 1.09.97 2.2 1.39 3.35.26.64.49 1.31.7 1.98 2.12-5.7 4.07-14.99-1.13-23.18z"/><path fill="#B1B3B3" d="M144.18 151.47l.01.01-.01-.01zM165.06 149.53v-.02l-.34.25.34-.23zM164.36 147.52c-1.88-3.91-6.1-4.85-10.95-3.93-2.66.5-4.72 1.55-6.28 3.03l10.98 4.29c1.99-.65 4.09-1.72 6.25-3.39zM158.11 150.9l-10.98-4.29c-.91.86-1.64 1.87-2.2 3.02 2.54 1.36 7.39 3.14 13.18 1.27z"/><g fill="#E6E7E8"><path d="M78.66 165.99c-1.95.41-3.88.46-5.75.22 1.37 3.69 3.25 7.13 5.57 10.25l9.77-5.74c-1.68-2.04-3.1-4.35-4.2-6.9-1.63 1-3.43 1.75-5.39 2.17zM77.48 160.47c.91-.19 1.77-.5 2.57-.89.8-.38 1.54-.85 2.21-1.39.25-.21.5-.42.73-.65.75-.72 1.39-1.54 1.91-2.43.94-1.62 1.48-3.46 1.5-5.39.01-.79-.06-1.6-.23-2.41-1.27-5.97-7.22-9.77-13.29-8.48-4.51.96-7.82 4.47-8.69 8.66-.21.99-.27 2.02-.19 3.06.04.48.09.96.2 1.44.11.52.27 1.02.45 1.51l.18.48c1.19 2.82 3.5 4.95 6.3 6 1.95.75 4.14.96 6.35.49zM192.14 124.6c-.64-6.19-2.78-11.94-6.03-16.89h-42.65l-2.94-10.88-6.71 10.88-2.09.12-3.16.19-3.16.19-3.51.21c-3.66 5.85-5.78 12.77-5.78 20.18 0 1.44.09 2.86.24 4.25.21 1.9.56 3.75 1.04 5.55.41 1.53.91 3.02 1.5 4.47 3.35 8.28 9.52 15.12 17.32 19.32.93.5 1.89.96 2.87 1.39.77.33 1.55.64 2.34.93 4 1.43 8.31 2.21 12.81 2.21 1.07 0 2.14-.06 3.19-.14 1.97-.16 3.9-.48 5.78-.93l.2-.05.22-.05c1.42-.36 2.81-.81 4.17-1.32 14.36-5.47 24.56-19.35 24.56-35.63 0-1.36-.07-2.69-.21-4zm-59.14-8.25c-3.76.18-5.59 2.82-5.18 6.35l.47 4.47-3.82.45-.71.08-.53-4.29c-.03-.25-.04-.51-.05-.76-.12-2.77.9-5.36 2.67-7.27 1.1-1.19 2.49-2.12 4.08-2.66.67-.23 1.38-.4 2.12-.49 5.53-.65 10.53 3.29 11.18 8.82l.53 4.29-3.88.53-.53-4.29c-.23-2.34-2.17-5.46-6.35-5.23zm35.69 29.94c-.84.93-1.75 1.8-2.75 2.59-.92.73-1.89 1.39-2.91 1.98-.62.37-1.33.76-2.12 1.14-2.83 1.35-6.64 2.5-10.72 1.85-1.52-.24-3.09-.73-4.65-1.56-.45-.24-.9-.51-1.35-.81h-.01l-.26-.18c-1.28-.69-2.46-1.52-3.54-2.47-2.89-2.56-5.01-6.01-5.91-9.94l30.7-1.39 8.18-.37c-.61 3.38-2.28 6.52-4.66 9.16zm12.13-23.82l-.59-4.24c-.24-2.35-2.18-5.47-6.35-5.24-3.76.18-5.59 2.82-5.18 6.35l.47 4.47-4.53.53-.53-4.29c-.65-5.53 3.29-10.53 8.82-11.18 5.53-.65 10.53 3.29 11.18 8.82l.59 4.24-3.88.54zM96.66 69.76c-3.13.53-5.73 2.29-7.4 4.69-.57.82-1.04 1.72-1.37 2.66-.32.93-.52 1.9-.58 2.91-.05.83-.02 1.67.12 2.53 1.02 6.02 6.81 10.06 12.93 9.02 2.9-.49 5.34-2.04 7.01-4.17.61-.78 1.12-1.64 1.51-2.56.38-.91.65-1.88.78-2.88.13-1.03.12-2.1-.07-3.17-1.02-6.03-6.81-10.07-12.93-9.03z"/></g><g fill="#A6CE42"><path d="M82.65 113.88c1.72.41 3.86.79 6.13 1.18l-.78 7.35c-.18 1.59.94 3.06 2.59 3.24h.29c1.47 0 2.76-1.12 2.94-2.59l.74-7.01c2.23.38 4.35.77 6.02 1.19.24.06.47.06.71.06 1.35 0 2.53-.88 2.88-2.24.35-1.59-.59-3.18-2.18-3.53-1.89-.45-4.3-.87-6.82-1.3l.76-7.23c.18-1.59-.94-3.06-2.59-3.24-1.53-.24-3.06.94-3.24 2.59l-.73 6.9c-2-.34-3.88-.7-5.39-1.08-1.59-.35-3.18.59-3.53 2.18-.33 1.59.61 3.18 2.2 3.53zM102.24 127c-6.07-1.02-12.22-1.48-18.36-1.39.36-.75.42-1.63.07-2.44-4.35-10.12-8.06-20.59-11.12-31.18-.35-1.29-1.47-2-2.88-2.12-1.35.06-2.47.94-2.82 2.24l-4.59 18.25c-1.06.47-1.81 1.55-1.77 2.81.02.65.26 1.23.63 1.7l-2.51 10c-.41 1.59.53 3.18 2.12 3.59l.14.04c-2.02.49-4.03 1.05-6.02 1.67-1.59.53-2.41 2.18-1.94 3.71.41 1.24 1.59 2.06 2.82 2.06.29 0 .59-.06.88-.12 14.24-4.47 29.59-5.47 44.35-3 1.17.17 2.3-.36 2.94-1.28.23-.33.4-.71.47-1.13l.01-.1c.23-1.61-.87-3.02-2.42-3.31zm-31.95-23.24c.66 2.02 1.36 4.04 2.08 6.05l-3.62.12 1.54-6.17zm-6.73 24.19c.5-.39.88-.93 1.08-1.6l2.62-10.47 7.26-.25c1.27 3.33 2.61 6.63 4.01 9.89l.16.29c-5.09.34-10.15 1.05-15.13 2.14z"/></g><g fill="#373737"><path d="M199.93 130.06c.13-4.08-.27-8.25-1.28-12.41-.25-1.02-.52-2.03-.83-3.02-.21-.67-.44-1.34-.7-1.98-.42-1.14-.88-2.26-1.39-3.35-.97-2.11-2.1-4.11-3.36-6.01-10.99-24.05-43.85-20.7-43.9-20.7-1.75.17-3.41.41-4.99.71-6.12 1.14-11.06 3.15-15.02 5.57-1.08.66-2.08 1.35-3.02 2.06-.93.7-1.79 1.42-2.59 2.15-4.71 4.31-7.3 8.98-8.64 12.13-.78 1.84-1.13 3.14-1.23 3.57-1.01 2.1-1.89 4.28-2.57 6.52-.09.29-.15.58-.23.87l-5.53 14.15-.01.1c-.08.42-.25.8-.47 1.13l-10.47 26.8-1.07 2.74-.52 1.33 4.43.11 11.86.3 3.14.08 11.44.29-1.89 11.31c-4.58 1.91-9.08 2.67-13.03 1.84-7.16-1.54-14.18-5.97-17.98-13.09-.58-1.1-1.09-2.26-1.51-3.48l.11-.16c.61-.8 1.15-1.65 1.6-2.54 1.67-3.28 2.28-7.11 1.46-10.96-1.92-9.02-10.9-14.76-20.05-12.81-6.49 1.38-11.31 6.27-12.89 12.21-.25.96-.43 1.94-.51 2.94-.08 1.04-.07 2.09.05 3.15.06.52.14 1.05.25 1.57.99 4.63 3.84 8.39 7.61 10.69 1.37 5.16 3.59 9.97 6.51 14.3.97 1.43 2 2.81 3.12 4.13 6.75 7.94 16.21 13.72 27.45 16.11 2.65.59 5.35.94 8.06 1.06 1.84.09 3.7.08 5.56-.01l-.09.54h77.06l-9.38-35.41 15.5.35c.01 0 1.7-17.87-.06-34.88zm-128.81 29.93c-2.79-1.05-5.1-3.19-6.3-6l-.18-.48c-.18-.49-.34-.99-.45-1.51-.1-.48-.16-.96-.2-1.44-.08-1.04-.02-2.07.19-3.06.88-4.19 4.18-7.7 8.69-8.66 6.07-1.29 12.02 2.5 13.29 8.48.17.81.24 1.61.23 2.41-.02 1.92-.56 3.77-1.5 5.39-.52.89-1.16 1.71-1.91 2.43-.23.23-.48.44-.73.65-.67.54-1.41 1.01-2.21 1.39-.8.39-1.66.69-2.57.89-2.2.46-4.39.25-6.35-.49zm7.36 16.48c-2.32-3.12-4.2-6.57-5.57-10.25 1.87.24 3.8.19 5.75-.22 1.97-.42 3.77-1.17 5.38-2.16 1.1 2.55 2.53 4.85 4.2 6.9l-9.76 5.73zm89.31-12.25c-1.35.52-2.74.96-4.17 1.32l-.22.05-.2.05c-1.88.45-3.81.76-5.78.93-1.05.09-2.11.14-3.19.14-4.49 0-8.8-.78-12.81-2.21-.79-.28-1.58-.59-2.34-.93-.98-.42-1.94-.88-2.87-1.39-7.81-4.2-13.97-11.03-17.32-19.32-.59-1.45-1.09-2.94-1.5-4.47-.48-1.8-.83-3.65-1.04-5.55-.16-1.4-.24-2.81-.24-4.25 0-7.41 2.12-14.32 5.78-20.18l3.51-.21 3.16-.19 3.16-.19 2.09-.12 6.71-10.88 2.94 10.88h42.65c3.25 4.95 5.38 10.7 6.03 16.89.14 1.31.21 2.64.21 3.99 0 16.28-10.2 30.17-24.56 35.64zM134.47 138.88c.9 3.93 3.02 7.37 5.91 9.94 1.08.96 2.27 1.79 3.54 2.47l.26.18.01.01c.45.3.9.57 1.35.81 1.56.83 3.12 1.32 4.65 1.56 4.08.65 7.9-.5 10.72-1.85.79-.38 1.5-.77 2.12-1.14 1.02-.58 2-1.25 2.91-1.98.99-.8 1.91-1.67 2.75-2.59 2.38-2.64 4.05-5.78 4.66-9.17l-8.18.37-30.7 1.39zm23.64 12.02c-5.79 1.87-10.64.09-13.18-1.27.57-1.14 1.3-2.15 2.2-3.02 1.56-1.48 3.62-2.53 6.28-3.03 4.84-.92 9.07.03 10.95 3.93-2.16 1.68-4.26 2.75-6.25 3.39zm6.6-1.14l.34-.25v.02l-.34.23zM172.94 108.88c-5.53.65-9.47 5.65-8.82 11.18l.53 4.29 4.53-.53-.47-4.47c-.41-3.53 1.41-6.18 5.18-6.35 4.18-.24 6.12 2.88 6.35 5.24l.59 4.24 3.88-.53-.59-4.24c-.65-5.53-5.65-9.47-11.18-8.83zM139.35 121.59l.53 4.29 3.88-.53-.53-4.29c-.65-5.53-5.65-9.47-11.18-8.82-.74.09-1.44.26-2.12.49-1.59.55-2.98 1.47-4.08 2.66-1.77 1.91-2.79 4.5-2.67 7.27.01.25.02.5.05.76l.53 4.29.71-.08 3.82-.45-.47-4.47c-.41-3.53 1.41-6.18 5.18-6.35 4.18-.24 6.12 2.88 6.35 5.23zM101.32 97.13c4.99-.85 9.08-3.78 11.56-7.72.52-.83.97-1.71 1.34-2.62.37-.92.67-1.87.87-2.85.41-1.97.48-4.03.13-6.12-1.55-9.1-10.28-15.2-19.5-13.63-5.21.89-9.47 4.04-11.9 8.25-.5.86-.91 1.77-1.25 2.71-.33.92-.57 1.87-.74 2.85-.3 1.78-.33 3.63-.01 5.5 1.54 9.1 10.28 15.2 19.5 13.63zm-14-17.11c.06-1 .26-1.98.58-2.91.33-.95.8-1.84 1.37-2.66 1.66-2.4 4.27-4.16 7.4-4.69 6.12-1.04 11.91 3 12.93 9.02.18 1.08.19 2.14.07 3.17-.12 1-.39 1.97-.78 2.88-.39.92-.89 1.78-1.51 2.56-1.67 2.13-4.11 3.68-7.01 4.17-6.12 1.04-11.91-3-12.93-9.02-.14-.85-.17-1.69-.12-2.52z"/></g></svg>