<svg baseProfile="tiny" xmlns="http://www.w3.org/2000/svg" viewBox="0 0 200 200"><g fill="#20A0DB"><path d="M100.24 1.47c-6.95 0-13.73.74-20.24 2.13 2.08 2.08 4.26 4.63 6.26 7.52 3.5-.6 7.2-.93 11.12-.93 38.86 0 58.53 22.65 58.53 67.37v9.37l10.13-1.36 1.99-16.56 1.97 16.56 15.8 2.11-15.8 2.11-1.99 16.56-1.99-16.56-10.13-1.36c-.01 13.48-.04 31.44-.08 49.03l5.39 5.39c2.9-1.13 6.41-.51 8.62 1.66 1.59 1.59 2.36 3.68 2.32 5.76 13.56-15.71 21.74-35.97 21.74-58.08 0-50.1-41.9-90.72-93.64-90.72zm55.6 40.97c-1.62 0-2.93-1.31-2.93-2.93s1.31-2.93 2.93-2.93 2.93 1.31 2.93 2.93-1.31 2.93-2.93 2.93zm15.8 13.93l-1.35 11.12-1.29-11.12-10.59-1.4 10.59-1.4 1.29-11.12 1.35 11.12 10.54 1.4-10.54 1.4zm7.61 50.45c-1.62 0-2.93-1.31-2.93-2.93s1.31-2.93 2.93-2.93 2.93 1.31 2.93 2.93-1.31 2.93-2.93 2.93zM46.7 26.71c.76-.82 1.62-1.56 2.61-2.18l2.52-1.58c1.03-.63 2.13-1.08 3.26-1.38 1.12-3.11 3.17-7.81 6.4-12-8.35 3.68-16.05 8.52-22.87 14.3 2.61.57 5.36 1.47 8.08 2.84zM19.26 46.58c-7.92 13.18-12.51 28.47-12.66 44.79l13.04-1.7 1.64-13.75 1.64 13.75 13.05 1.7-13.05 1.76-1.64 13.7-1.64-13.7-13.04-1.76-.01.82c0 20.6 7.1 39.59 19.04 54.82.39-.95.97-1.84 1.74-2.61 2.34-2.29 5.87-2.76 8.7-1.62l2.74-2.74c.03-26.2.03-52.88.03-62.48 0-2.43.11-4.86.3-7.29l-.77-.5c-6.45-4.21-15.45-12.7-19.11-23.19zm13.66 36.83c-1.62 0-2.93-1.31-2.93-2.93s1.31-2.93 2.93-2.93 2.93 1.31 2.93 2.93-1.31 2.93-2.93 2.93zm-7.25 37.05l-1.35 11.06-1.29-11.06-10.59-1.4 10.59-1.4 1.29-11.12 1.35 11.12 10.59 1.4-10.59 1.4z"/></g><g fill="#B3B3B3"><path d="M83.78 181.51c-7.98-1.37-15.6-3.72-22.73-6.91-.37.74-.85 1.44-1.44 2.05l-.34.33c8.99 4.12 18.43 6.81 28.23 8.05-.81-.59-1.59-1.23-2.31-1.95-.5-.49-.97-1.02-1.41-1.57zM136.71 175.74c-.45.19-.9.37-1.36.55-7.08 2.79-14.62 4.74-22.46 5.77-1.11 1.28-2.38 2.43-3.79 3.37 9.44-.82 18.61-2.96 27.36-6.4.89-.35 1.79-.73 2.68-1.11-.59-.34-1.14-.75-1.63-1.23-.29-.28-.55-.61-.8-.95zM97.37 10.19c-3.92 0-7.62.32-11.12.93.6.86 1.18 1.76 1.74 2.68.53.87 1.04 1.76 1.52 2.68 2.48-.31 5.07-.49 7.8-.49 30.14 0 47.09 14.55 51.5 44.32l2.98.32 2.88.31-2.56 2.17-2.69 2.28c.37 3.82.56 7.85.56 12.12 0 12.35-.02 33.32-.07 54.48.81.56 1.59 1.18 2.3 1.89l3.6 3.6c.04-17.59.07-35.56.08-49.03v-10.87c.01-44.74-19.66-67.39-58.52-67.39zM40.83 70.12l-1.29.41-.4-.26c-.19 2.42-.3 4.85-.3 7.29 0 9.6 0 36.28-.03 62.48l2.87-2.87 2.93-2.93c.02-24.23.02-47.8.02-56.74 0-3.09.17-6.23.52-9.38-.96.6-1.99 1.14-3.09 1.57-.41.15-.81.3-1.23.43z"/></g><g fill="#C4C4C4"><path d="M135.35 122.54c-.46-.3-.92-.6-1.39-.9-.49 3.72-1.73 6.89-3.48 9.57 1.52-.87 3.16-1.51 4.86-1.9 2.7-.62 5.53-.64 8.24-.06-2.49-2.47-5.25-4.73-8.23-6.71zM135.35 172.47c-.07-.43-.12-.87-.12-1.32s.04-.89.12-1.32c.11-.63.28-1.25.54-1.83l-8.91-8.91c-3.39-3.39-5.27-7.9-5.21-12.64 0-3.04.76-5.98 2.19-8.58-2.02 1.42-4.21 2.59-6.46 3.53v12.61c3.11 1.18 5.33 4.18 5.33 7.71 0 3.49-2.21 6.51-5.33 7.7v.31c0 3.24-.82 6.29-2.27 8.96-.65 1.21-1.45 2.33-2.34 3.36 7.84-1.03 15.38-2.98 22.46-5.77l1.36-.55c-.59-.82-1.01-1.75-1.25-2.74-.04-.16-.08-.34-.11-.52zM61.99 124.8c-.94.73-1.84 1.49-2.73 2.27-.65.57-1.29 1.15-1.91 1.75.64-.01 1.27.01 1.91.06 2.17.19 4.31.77 6.28 1.71-1.96-2.49-3.05-4.65-3.55-5.79zM79.63 169.74v-.31c-3.11-1.18-5.33-4.18-5.33-7.71 0-2.22.88-4.33 2.46-5.85.79-.83 1.78-1.45 2.87-1.86v-12.91c-2.51-1.06-4.71-2.27-6.6-3.56 1.58 2.69 2.43 5.75 2.39 8.97 0 4.74-1.81 9.25-5.21 12.58l-8.91 8.91c.39.95.6 1.97.6 3.03 0 .23-.01.46-.03.68-.09 1.01-.36 1.99-.81 2.89 7.13 3.19 14.75 5.54 22.73 6.91-.86-1.06-1.58-2.22-2.18-3.43-1.28-2.56-1.98-5.41-1.98-8.34z"/></g><g fill="#AAABB0"><path d="M131.43 117.06c-1.25-.13-2.36.55-2.87 1.61-.16.33-.26.69-.29 1.09-.61 8.22-5.75 12.93-11.46 15.63.12.45.25.91.34 1.37.23 1.19.36 2.42.36 3.66v.98c2.25-.94 4.44-2.11 6.46-3.53.8-1.45 1.81-2.81 3.02-4 1.05-1.05 2.24-1.92 3.51-2.65 1.75-2.68 2.98-5.85 3.48-9.57.06-.47.12-.93.16-1.42.1-1.64-1.07-3.05-2.71-3.17zM67.22 122.04c-.09-.23-.21-.45-.35-.64-.75-1.09-2.11-1.62-3.4-1.17-1.52.53-2.34 2.22-1.81 3.75.03.09.14.39.33.83.49 1.14 1.58 3.3 3.55 5.8 1.7.81 3.29 1.89 4.66 3.26 1.12 1.12 2.05 2.36 2.82 3.67 1.9 1.29 4.09 2.5 6.6 3.56v-.68c0-.8.07-1.58.16-2.35.13-1.05.34-2.07.64-3.06-10.13-4.87-13.04-12.49-13.2-12.97z"/></g><g fill="#D1D2D4"><path d="M121.58 115.8c-1.11-.37-2.24-.71-3.38-1.02-.51-.14-1.03-.28-1.55-.41-8.34 4-18.03 5.47-27.83 3.57-3.04-.59-5.94-1.49-8.68-2.63-1.16.36-2.31.74-3.44 1.17-3.45 1.34-6.75 2.97-9.83 4.92.14.2.26.41.35.64.16.48 3.07 8.1 13.21 12.96 2.34-7.79 9.57-13.49 18.1-13.49 5.09 0 9.83 1.99 13.4 5.56 2.36 2.32 4.01 5.18 4.87 8.31 5.71-2.7 10.85-7.41 11.46-15.63.03-.39.13-.75.29-1.09l-.51-.26c-2.07-.98-4.23-1.85-6.46-2.6zM90.29 110.86c18.69 3.63 36.87-7.41 42.25-24.96l-.17-.09-2.83-1.48c.14 2.24-2.75 4.57-6.71 5.35-3.15.62-6.07.06-7.5-1.27l-6.14 3.2 2.69-12.23 1.23-5.62-4.68-3.98-2.83-2.4h-14.05l-.49.43-2.41 2.09-4.74 4.16 1.29 5.91 2.63 12.35-7.94-4.22c-1.28 1.56-4.4 2.26-7.8 1.59-3.04-.6-5.45-2.11-6.34-3.79l-.97.52-1.94 1.03c4.18 11.62 14.27 20.82 27.45 23.41zm26.33-18.38c-1.05 5.62-4.68 10.36-9.77 12.88-2.4 1.17-5.09 1.87-7.9 1.93-1.95.05-3.9-.24-5.77-.8h-.02c-2.27-.68-4.43-1.74-6.32-3.12-3.8-2.69-6.61-6.5-7.67-10.77l37.45-.12z"/></g><g fill="#AAAAAB"><path d="M100.18 97.69c-5.24-1.02-9.69.23-11.12 5.15 8.85 4.26 16 1.68 18.93.19-1.27-3.26-3.41-4.43-7.81-5.34zM70.74 83.23l-5 2.64c.89 1.68 3.3 3.19 6.34 3.79 3.4.67 6.52-.03 7.8-1.59l-3.18-1.69-5.96-3.15zM126.34 82.65l-6.03 3.16-4.98 2.6c1.43 1.33 4.34 1.89 7.5 1.27 3.96-.78 6.85-3.1 6.71-5.35l-3.2-1.68z"/></g><g fill="#E8E8E8"><path d="M59.26 96.94v30.13c.89-.78 1.79-1.54 2.73-2.27-.19-.45-.3-.74-.33-.83-.53-1.52.29-3.22 1.81-3.75 1.29-.45 2.65.08 3.4 1.17 3.08-1.94 6.38-3.58 9.83-4.92 1.13-.43 2.27-.81 3.44-1.17-8.99-3.75-16.21-10.31-20.88-18.36zM116.66 114.37c.52.13 1.04.26 1.55.41 1.14.31 2.27.65 3.38 1.02 2.22.74 4.38 1.62 6.47 2.61l.51.26c.51-1.06 1.62-1.74 2.87-1.61 1.64.12 2.81 1.52 2.69 3.16-.04.48-.1.95-.16 1.42.47.29.93.59 1.39.9v-25.19c-4.43 7.43-10.99 13.32-18.7 17.02zM129.5 48.29v.8l2.05 4.12 2.75 5.56 1.05.11v-10.59zM121.01 53.27l1.89-3.82.75-1.51v-5.5h-5.86v16.38l.53-.05zM106.09 60.06l5.5-.59.35-.04v-11.14h-5.85zM98.3 61.52h.4l-.2-.17zM94.38 60.63l3.76.41-.13-.11 2.23-.24v-6.55h-5.86zM86.83 49.17c.06.06-.64.12-1.76.12-.66 0-1.48-.02-2.4-.08v10.15l2.75.29 3.1.34v-11.37l-.29.43-1.4.12zM75.94 53.27l2.75 5.68.29.03v-10.17c-1.58-.24-3.31-.59-5.12-1.11l-.65-.2.26.54 2.47 5.23zM65.1 54.14h-5.84v5.2l3.52-.4z"/></g><g fill="#fff"><path d="M149.43 65.38l-5.17 4.39-4.68 3.98 1.23 5.62 2.69 12.23-4.42-2.3c-.97 2.84-2.22 5.53-3.72 8.05v25.19c2.98 1.98 5.74 4.24 8.24 6.72 2.25.49 4.41 1.39 6.32 2.72.05-21.16.07-42.13.07-54.48 0-4.27-.2-8.3-.56-12.12zM53.64 92.31l2.63-12.35 1.29-5.91-4.74-4.16-4.69-4.06c-.92.85-1.91 1.61-2.99 2.29-.34 3.15-.52 6.29-.52 9.38 0 8.94 0 32.51-.02 56.74l.37-.37c3.31-3.31 7.83-4.98 12.37-5.04.62-.6 1.26-1.18 1.91-1.75v-30.14c-1.13-1.94-2.12-3.96-2.94-6.06l-2.67 1.43zM135.35 58.88l2.88.3 1.39.14 1.46.15 7.72.83c-4.41-29.77-21.36-44.32-51.5-44.32-2.73 0-5.32.18-7.8.49 1.87 3.57 3.32 7.46 3.98 11.5.23 1.41.37 2.83.39 4.27.04 2.42-.24 4.87-.91 7.31-.77 2.81-2.05 5.62-3.97 8.38l-.47.68v11.36l5.85.64v-6.48h5.85v6.55l5.85-.63v-11.76h5.85v11.14l5.85-.61v-16.38h5.85v5.5l2.61-5.27.03-.05.06.12 3.16 6.35v-.8h5.85v10.59zM65.59 44.2l-.41.29-2.52 1.58c-.42.25-.86.48-1.31.68-1.21.56-2.48.92-3.78 1.09-.8 3.35-2.25 7.97-4.81 12.21l2.06-.22 1.23-.13.22-.02 3-.34v-5.2h5.84l.43-.88 3.53-7.3c-.92-.4-1.83-.84-2.75-1.34-.25-.13-.49-.28-.73-.42zM78.99 58.97l3.69.38v-10.15c-1.09-.07-2.33-.19-3.69-.4v10.17zM83.4 17.59c-.52-.88-1.06-1.72-1.61-2.52-.61-.89-1.22-1.73-1.83-2.51-2.08-2.69-4.05-4.74-5.2-5.88-6.99 1.98-11.23 9.66-13.39 14.83.28.07.56.15.84.24.79.24 1.56.56 2.29.94.85-1.46 2.04-3.23 3.67-5.06 1.82-2.04 4.18-4.14 7.17-5.91l1.59 1.82.07.04s-3.58 1.4-6.91 6.22c-.94 1.37-1.86 3.01-2.68 4.97l.06.06c.63.62 1.2 1.3 1.69 2.05l12.52-5.4 1 1.64-12.18 6.55c.25.75.44 1.51.54 2.28 2.53.55 4.76.71 6.68.63 5.3-.21 8.18-2.14 8.18-2.14l.59 2.4c-2.61 1.2-5.15 1.91-7.49 2.31-2.36.4-4.5.49-6.28.44l-.15-.01c-.54-.02-1.05-.05-1.52-.09-.08.53-.2 1.05-.34 1.57-.26.94-.62 1.85-1.09 2.71.53.27 1.05.53 1.58.76.45.2.91.39 1.36.56 2.26.88 4.46 1.42 6.44 1.76.68.12 1.34.21 1.96.28 1.65.19 3.05.24 4.07.24.48-.79.88-1.58 1.24-2.37 1.21-2.66 1.77-5.32 1.82-7.94.03-1.41-.08-2.81-.31-4.18-.68-4.08-2.38-7.94-4.38-11.29zM42.7 61.11l.54-.06 1.64-.17c.67-.68 1.28-1.42 1.84-2.2 2.63-3.66 4.16-8.15 5.01-11.49-.28-.1-.55-.2-.82-.32-.31.69-.8 1.68-1.53 2.87-1.09 1.76-2.69 3.91-4.92 5.96-1.04.96-2.23 1.89-3.57 2.75-.29.19-.57.38-.87.56l-1.52-1.7s1.39-.56 3.19-2.17c2.02-1.81 4.55-4.95 6.22-10.13-.7-.58-1.35-1.24-1.92-1.97-.15-.19-.28-.39-.42-.59l-13.52 5.9-1-1.58 13.03-7.13c-.18-.48-.31-.97-.43-1.47-10.18-2.56-15.82 1.34-15.82 1.34l-.59-2.4c6.52-3.07 12.69-3.04 16.12-2.68.06-.88.22-1.75.46-2.59-3.68-1.82-7.46-2.62-10.73-2.9-3.42-.3-6.27-.05-7.85.16-1.65 3.77-2.04 7.42-1.61 10.87 1.44 11.46 12.06 20.56 16.26 23.7.18.14.35.26.51.37.91-.4 1.75-.9 2.54-1.48.25-.19.5-.38.74-.59l-.54-.47-.44-.39zM50.13 38.87c.19.3.41.58.64.84.65.74 1.46 1.31 2.35 1.7.63.28 1.3.46 1.98.55 1.06.14 2.15.04 3.16-.31.45-.16.89-.36 1.3-.61l.89-.56 1.63-1.02c.32-.2.62-.43.9-.67.75-.66 1.34-1.45 1.73-2.33.89-2 .81-4.39-.4-6.37-.38-.58-.84-1.09-1.35-1.54-.7-.6-1.52-1.06-2.4-1.34l-.23-.08c-.6-.17-1.22-.26-1.87-.26-.37 0-.74.04-1.1.1-.33.05-.66.13-.97.23-.53.17-1.03.38-1.5.67l-.28.18-2.23 1.4c-.24.15-.46.31-.67.48-.79.64-1.41 1.44-1.84 2.33-.66 1.37-.87 2.94-.55 4.45.13.74.4 1.47.81 2.16z"/></g><g fill="#FFE687"><path d="M135.35 64.83l-2.99-.32c-1.17-.12-2.22-.82-2.69-1.81l-.18-.35-.26-.52-.02-.03-.13-.26-.19-.39-2.62-5.29-2.63 5.41-.13.27-.3.62-.21.41c-.53 1-1.52 1.7-2.69 1.81l-2.52.27-5.56.6.69.59 1.78 1.52 3.5 2.99c.82.76 1.23 1.87 1 2.93l-1.64 7.37 7.2-3.57c.27-.17.57-.27.89-.33l.04-.01c.23-.04.47-.07.71-.07.53 0 1.11.12 1.64.41l7.08 3.69-1.64-7.37c-.23-1.11.12-2.17 1-2.93l.88-.75 2.76-2.35 1.78-1.52.55-.47-5.1-.55zM78.99 64.85l-2.11-.23c-1.17-.12-2.22-.82-2.69-1.81l-.63-1.29-1.01-2.07-1.76-3.6-2.72 5.68-.62 1.29c-.47.89-1.33 1.52-2.34 1.73l-.35.08-2.46.27-1.4.15-1.64.18-2.58.28.41.35 1.8 1.52 3.94 3.34c.55.51.9 1.17 1.02 1.88.06.36.06.73-.02 1.1l-1.64 7.49 2.25-1.19.13-.07 4.7-2.49c.47-.29 1.11-.41 1.64-.41s1.11.12 1.64.41l7.08 3.75-1.64-7.49c-.23-1.11.12-2.22 1-2.99l1.12-.98 2.7-2.36 1.74-1.52.4-.35-2.28-.25-3.68-.4z"/></g><g fill="#C9C9C9"><path d="M103.81 65.85l-.29-.25-3.28-2.78-1.54-1.3h-.4l-3.92 3.39-1.08.94-1.75 1.52h14.05zM93.88 32.25c-.02-1.44-.16-2.86-.39-4.27-.66-4.04-2.11-7.93-3.98-11.5-.48-.92-.99-1.81-1.52-2.68-.56-.92-1.14-1.82-1.74-2.68-2-2.89-4.18-5.43-6.26-7.52-.84-.85-1.67-1.62-2.47-2.31l-1.05-.88-1.35.23c-5.93 1.01-10.38 4.71-13.64 8.92-3.23 4.19-5.28 8.89-6.4 12-1.13.3-2.23.75-3.26 1.38l-2.52 1.58c-.99.62-1.86 1.36-2.61 2.18-2.72-1.37-5.47-2.27-8.08-2.84-8.61-1.89-15.8-.26-16-.22l-1.35.23-.64 1.23c-3.85 7.57-3.66 14.91-1.37 21.47 3.65 10.49 12.66 18.98 19.1 23.19l.77.5.4.26 1.29-.41c.42-.13.83-.28 1.23-.44 1.1-.43 2.13-.97 3.09-1.57 1.08-.68 2.08-1.44 2.99-2.29l-2.18-1.89-.23-.2-2.03-1.76c-.24.2-.49.4-.74.59-.78.58-1.63 1.08-2.54 1.48l-.51-.37c-4.2-3.14-14.82-12.24-16.26-23.7-.43-3.44-.04-7.1 1.61-10.87 1.58-.21 4.43-.46 7.85-.16 3.26.29 7.04 1.09 10.73 2.9-.24.85-.4 1.72-.46 2.59-3.43-.36-9.6-.39-16.12 2.68l.59 2.4s5.64-3.89 15.82-1.34c.11.49.25.98.43 1.47l-13.03 7.13 1 1.58 13.52-5.9c.14.2.27.4.42.59.57.74 1.22 1.39 1.92 1.97-1.68 5.18-4.21 8.32-6.22 10.13-1.8 1.61-3.19 2.17-3.19 2.17l1.52 1.7c.3-.18.58-.37.87-.56 1.34-.86 2.53-1.8 3.57-2.75 2.23-2.05 3.84-4.2 4.92-5.96.73-1.18 1.23-2.18 1.53-2.87.27.12.54.22.82.32-.85 3.34-2.38 7.83-5.01 11.49-.56.78-1.17 1.52-1.84 2.2l1.4-.15 2.8-.3 3.68-.39c2.56-4.24 4.01-8.87 4.81-12.21 1.3-.16 2.58-.53 3.78-1.09.44-.2.88-.43 1.31-.68l2.52-1.58.41-.29.72.42c.92.5 1.83.94 2.75 1.34l1.29-2.67.44-.91.64 1.36 1.11 2.35.67 1.41.65.2c1.81.52 3.54.87 5.12 1.11 1.36.21 2.6.33 3.69.4.92.06 1.74.08 2.4.08 1.11 0 1.81-.06 1.76-.12l1.4-.12.29-.43.48-.66c1.92-2.76 3.2-5.57 3.97-8.38.67-2.45.95-4.9.91-7.31zm-34.32 8.78c-.41.26-.85.46-1.3.61-1.02.35-2.1.45-3.16.31-.68-.09-1.35-.27-1.98-.55-.89-.39-1.7-.97-2.35-1.7-.23-.26-.45-.54-.64-.84-.41-.68-.68-1.41-.83-2.15-.31-1.51-.11-3.08.55-4.45.43-.89 1.05-1.69 1.84-2.33.21-.17.43-.34.67-.48l2.23-1.4.28-.18c.47-.29.97-.5 1.5-.67.32-.1.64-.18.97-.23.36-.06.73-.1 1.1-.1.64 0 1.27.1 1.87.26l.23.08c.88.28 1.7.74 2.4 1.34.51.44.98.95 1.35 1.54 1.21 1.98 1.29 4.37.4 6.37-.39.87-.97 1.67-1.73 2.33-.28.24-.57.47-.9.67l-1.63 1.02-.87.55zm11.63-.51c-.53-.23-1.05-.49-1.58-.76.47-.86.83-1.77 1.09-2.71.14-.52.26-1.04.34-1.57.46.04.98.07 1.52.09l.15.01c1.78.06 3.92-.03 6.28-.44 2.34-.4 4.89-1.11 7.49-2.31l-.59-2.4s-2.88 1.94-8.18 2.14c-1.92.07-4.15-.08-6.68-.63-.11-.77-.29-1.53-.54-2.28l12.18-6.55-1-1.64-12.52 5.4c-.49-.76-1.06-1.44-1.69-2.05l-.06-.06c.82-1.96 1.74-3.6 2.68-4.97 3.33-4.82 6.91-6.22 6.91-6.22l-.05-.05-1.59-1.82c-3 1.77-5.35 3.87-7.17 5.91-1.63 1.83-2.83 3.6-3.67 5.06-.73-.38-1.5-.7-2.29-.94-.28-.08-.55-.17-.84-.24 2.15-5.17 6.4-12.85 13.39-14.83 1.15 1.13 3.12 3.19 5.2 5.88.61.79 1.22 1.62 1.83 2.51.55.8 1.09 1.65 1.61 2.52 1.99 3.35 3.69 7.21 4.37 11.3.23 1.37.34 2.76.31 4.18-.06 2.61-.62 5.28-1.82 7.94-.36.79-.76 1.58-1.24 2.37-1.02 0-2.42-.05-4.07-.24-.62-.07-1.28-.17-1.96-.28-1.98-.34-4.18-.88-6.44-1.76-.46-.17-.92-.35-1.37-.56z"/></g><g fill="#D0D2D3"><path d="M29.44 157.66c-2.03 2.22-3.19 5.07-3.19 8.1 0 3.22 1.23 6.2 3.51 8.49 2.86 2.86 7.13 3.89 11 3.11 2.06-.42 4.02-1.34 5.59-2.79l-16.91-16.91zM85.54 169.98c.06 3.39 1.4 6.56 3.8 8.96l.47.43c1.12 1.02 2.37 1.84 3.74 2.41 1.57.66 3.27 1.02 5.03 1.02 2.02 0 3.92-.47 5.62-1.28 1.03-.49 1.99-1.12 2.85-1.85 2.75-2.35 4.52-5.81 4.58-9.68h-26.09zM167.77 157.75l-16.93 16.93c1.59 1.43 3.53 2.34 5.58 2.75 3.87.77 8.1-.27 10.95-3.12 2.28-2.28 3.51-5.27 3.51-8.49 0-2.99-1.08-5.86-3.11-8.07z"/></g><g fill="#818385"><path d="M59.26 134.69c-2.98-.38-6.09.29-8.59 2.02-.54.37-1.06.78-1.53 1.25l-4.54 4.54-3.95 3.95 3.94 3.94 13.03 13.03 8.49-8.49c2.28-2.28 3.51-5.27 3.51-8.49 0-3.22-1.23-6.2-3.51-8.49-1.86-1.85-4.3-2.93-6.85-3.26zM111.35 137.39c-.55-2.34-1.71-4.49-3.45-6.22-2.46-2.52-5.74-3.86-9.25-3.86-6.08 0-11.19 4.18-12.63 9.82-.26 1.01-.41 2.06-.42 3.15v13.19h26.1v-13.05c0-.36-.02-.71-.05-1.06-.05-.67-.15-1.33-.3-1.97zM148.06 138.02c-2.28-2.28-5.27-3.51-8.49-3.51-1.47 0-2.89.27-4.21.76-1.58.59-3.03 1.51-4.27 2.75-2.28 2.28-3.51 5.27-3.51 8.49 0 3.22 1.23 6.2 3.51 8.49l8.49 8.49 16.97-16.97-8.49-8.5z"/></g><g fill="#B8B9BA"><path d="M53.08 167.14l-8.5-8.48-2.12-2.11-.8-.8-2.86-2.86-4.35-4.34c-.41-.41-.88-.59-1.4-.59-.64 0-1.11.18-1.52.59-.76.82-.76 2.11 0 2.87l21.13 21.13c.76.76 2.11.76 2.93 0 .14-.14.24-.29.33-.45v-.01c.17-.3.25-.63.25-1.01 0-.53-.23-1.05-.59-1.46l-2.5-2.48zM114.63 159.32h-32.01c-.64 0-1.23.23-1.64.7-.47.47-.76 1.05-.76 1.7 0 1.35 1.05 2.4 2.4 2.4h32.02c1.35 0 2.4-1.05 2.4-2.4-.01-1.34-1.06-2.4-2.41-2.4zM165.67 148.67c-.41-.53-.88-.7-1.4-.7-.64 0-1.11.23-1.52.59l-21.13 21.13c-.24.24-.39.49-.48.78-.07.21-.11.44-.11.69 0 .53.23 1.05.59 1.46.26.26.59.42.95.5.64.15 1.36.01 1.86-.41l.12-.1 1.07-1.07.86-.85 2.05-2.05 4.22-4.21 3-2.99 2.62-2.61 7.31-7.29c.11-.11.2-.23.28-.35.52-.8.42-1.86-.29-2.52z"/></g><g fill="#373737"><path d="M86.83 103.37c1.51 1.1 3.19 1.99 4.96 2.65.43.17.88.33 1.36.47h.02c.35.1.72.2 1.1.29 1.53.36 3.1.55 4.67.51 2.81-.06 5.5-.76 7.9-1.93 5.09-2.52 8.72-7.26 9.77-12.88l-37.45.12c1.06 4.27 3.87 8.08 7.67 10.77zm13.35-5.68c4.41.91 6.54 2.08 7.81 5.34-2.93 1.49-10.08 4.07-18.93-.19 1.43-4.92 5.88-6.17 11.12-5.15zM43.7 61.97l2.03 1.76.23.2 2.18 1.89 4.69 4.06 4.74 4.16-1.29 5.91-2.63 12.35 2.68-1.42c.82 2.1 1.81 4.12 2.94 6.06 4.67 8.05 11.88 14.61 20.88 18.37 2.74 1.15 5.64 2.04 8.68 2.63 9.81 1.9 19.5.44 27.83-3.57 7.72-3.71 14.27-9.6 18.7-17.02 1.5-2.52 2.75-5.21 3.72-8.05l4.42 2.3-2.69-12.23-1.23-5.62 4.68-3.98 5.17-4.39 2.69-2.28 2.56-2.17-2.88-.31-2.98-.32-7.72-.83-1.46-.15-1.39-.14-2.88-.3-1.05-.11-2.75-5.56-2.05-4.12-3.16-6.35-.06-.12-.03.05-2.61 5.27-.75 1.51-1.89 3.81-2.69 5.5-.53.05-5.85.61-.35.04-5.5.59-5.85.63-2.22.24.12.11-3.75-.41-5.85-.64-3.1-.34-2.75-.29-3.69-.38-.29-.03-2.75-5.68-2.47-5.22-.26-.54-.67-1.41-1.11-2.35-.64-1.36-.44.91-1.29 2.67-3.53 7.3-.43.88-2.33 4.8-3.51.4-3 .34-.22.02-1.23.13-2.06.22-3.68.39-2.8.3-1.4.15-1.64.17-.54.06.45.39.53.46zm30.49.84c.47 1 1.52 1.7 2.69 1.81l2.11.23 3.69.4 2.28.25-.4.35-1.74 1.52-2.7 2.36-1.12.98c-.88.76-1.23 1.87-1 2.99l1.64 7.49-7.08-3.75c-.53-.29-1.11-.41-1.64-.41s-1.17.12-1.64.41l-4.7 2.49-.13.07-2.25 1.19 1.64-7.49c.08-.37.08-.74.02-1.1-.11-.71-.47-1.38-1.02-1.88l-3.94-3.34-1.8-1.52-.41-.35 2.58-.28 1.64-.18 1.4-.15 2.46-.27.35-.08c1.01-.21 1.87-.84 2.34-1.73l.62-1.29 2.72-5.68 1.76 3.6 1.01 2.07.62 1.29zm49.33-1.29l.13-.27 2.63-5.41 2.62 5.29.19.39.13.26.02.03.26.52.18.35c.47 1 1.52 1.7 2.69 1.81l2.99.32 5.09.55-.55.47-1.78 1.52-2.76 2.35-.88.75c-.88.76-1.23 1.81-1 2.93l1.64 7.37-7.08-3.69c-.53-.29-1.11-.41-1.64-.41-.24 0-.47.03-.71.07l-.04.01c-.32.06-.63.17-.89.33l-7.2 3.57 1.64-7.37c.23-1.05-.18-2.17-1-2.93l-3.5-2.99-1.78-1.52-.69-.59 5.56-.6 2.52-.27c1.17-.12 2.17-.82 2.69-1.81l.21-.44.31-.59zm-24.82 0l1.53 1.3 3.28 2.78.29.25 1.79 1.52 2.83 2.4 4.68 3.98-1.23 5.62-2.69 12.23 6.14-3.2 4.98-2.6 6.03-3.16 3.2 1.68 2.83 1.48.17.09c-5.39 17.55-23.56 28.59-42.25 24.96-13.17-2.59-23.26-11.79-27.46-23.43l1.94-1.03.97-.52 5-2.64 5.97 3.16 3.18 1.69 7.94 4.22-2.63-12.35-1.29-5.91 4.74-4.16 2.41-2.09.49-.43 1.76-1.52 1.08-.93 3.92-3.4.2-.17.2.18zM75.42 146.51c.04-3.22-.81-6.28-2.39-8.97-.77-1.32-1.71-2.56-2.82-3.67-1.37-1.37-2.96-2.45-4.66-3.26-1.97-.94-4.11-1.52-6.28-1.71-.64-.06-1.27-.07-1.91-.06-4.54.06-9.06 1.73-12.37 5.04l-3.3 3.3-2.87 2.87-2.74 2.74c-2.83-1.14-6.36-.68-8.7 1.62-.77.77-1.35 1.66-1.74 2.61-.81 1.97-.77 4.18.08 6.13l-.1.1c-3.39 3.34-5.21 7.84-5.21 12.58-.06 4.74 1.81 9.25 5.21 12.64 3.39 3.34 7.84 5.21 12.64 5.21.85 0 1.69-.08 2.52-.2v9.5h-6.2c-2.11 0-3.75 1.7-3.75 3.75 0 2.11 1.7 3.75 3.75 3.75h22.36c2.11 0 3.75-1.7 3.75-3.75s-1.7-3.75-3.75-3.75h-6.2v-14.35l.12-.1.16-.16c.98.41 2.03.63 3.11.63 1.94 0 3.78-.71 5.16-2.01l.34-.33c.59-.61 1.07-1.31 1.44-2.05.45-.9.72-1.87.81-2.89.02-.23.03-.45.03-.68 0-1.06-.21-2.09-.6-3.03l8.91-8.91c3.38-3.35 5.2-7.85 5.2-12.59zm-45.66 27.74c-2.28-2.28-3.51-5.27-3.51-8.49 0-3.03 1.16-5.88 3.19-8.1l16.91 16.91c-1.57 1.45-3.52 2.38-5.59 2.79-3.87.78-8.14-.25-11-3.11zm25.82-1.7c-.82.76-2.17.76-2.93 0l-21.13-21.13c-.76-.76-.76-2.05 0-2.87.41-.41.88-.59 1.52-.59.53 0 1 .18 1.4.59l4.35 4.34 2.86 2.86.8.8 2.12 2.11 8.5 8.48 2.5 2.49c.35.41.59.94.59 1.46 0 .38-.08.71-.25 1.01v.01c-.09.15-.19.3-.33.44zm2.04-9.13l-13.03-13.03-3.94-3.94 3.95-3.95 4.54-4.54c.48-.47.99-.88 1.53-1.25 2.51-1.72 5.62-2.39 8.59-2.02 2.55.32 4.99 1.4 6.85 3.27 2.28 2.28 3.51 5.27 3.51 8.49 0 3.22-1.23 6.2-3.51 8.49l-8.49 8.48zM117.5 154.01v-13.59c0-1.25-.12-2.47-.36-3.66-.09-.46-.21-.92-.34-1.37-.86-3.14-2.51-5.99-4.87-8.31-3.57-3.57-8.31-5.56-13.4-5.56-8.54 0-15.77 5.7-18.1 13.49-.3.99-.51 2.01-.64 3.06-.1.77-.16 1.55-.16 2.35v13.59c-1.09.41-2.07 1.04-2.87 1.86-1.58 1.52-2.46 3.63-2.46 5.85 0 3.53 2.21 6.53 5.33 7.71v.31c0 2.93.69 5.78 1.96 8.34.6 1.21 1.33 2.37 2.18 3.43.44.55.91 1.08 1.41 1.57.72.72 1.5 1.36 2.31 1.95 1.84 1.34 3.88 2.32 6.06 2.92v4.55h-6.67c-2.17 0-3.98 1.76-3.98 3.98 0 2.17 1.76 3.98 3.98 3.98h24c2.17 0 3.98-1.76 3.98-3.98 0-2.22-1.76-4.04-3.98-4.04h-6.67v-4.66c1.75-.55 3.4-1.35 4.89-2.35 1.41-.95 2.68-2.09 3.79-3.37.89-1.03 1.68-2.15 2.34-3.36 1.45-2.67 2.27-5.72 2.27-8.96v-.31c3.11-1.19 5.33-4.22 5.33-7.7 0-3.54-2.21-6.54-5.33-7.72zm-10.43 25.65c-.86.74-1.82 1.36-2.85 1.85-1.7.81-3.6 1.28-5.62 1.28-1.76 0-3.46-.35-5.03-1.02-1.37-.58-2.62-1.4-3.74-2.41-.16-.14-.32-.28-.47-.43-2.4-2.4-3.75-5.56-3.8-8.96h26.1c-.08 3.88-1.84 7.34-4.59 9.69zm-21.47-39.3v-.08c.01-1.09.16-2.14.42-3.15 1.44-5.64 6.55-9.82 12.63-9.82 3.51 0 6.79 1.35 9.25 3.86 1.73 1.73 2.9 3.88 3.45 6.22.15.64.26 1.3.31 1.96.03.35.05.71.05 1.06v13.05h-26.11v-13.1zm-2.98 23.76c-1.35 0-2.4-1.05-2.4-2.4 0-.64.29-1.23.76-1.7.41-.47 1-.7 1.64-.7h32.02c1.35 0 2.4 1.05 2.4 2.4 0 1.35-1.05 2.4-2.4 2.4h-32.02zM158.94 183.67c4.74 0 9.25-1.87 12.58-5.27 3.39-3.34 5.21-7.84 5.21-12.58.06-4.8-1.81-9.25-5.21-12.64.39-.93.6-1.92.62-2.91.04-2.07-.73-4.16-2.32-5.76-2.21-2.17-5.73-2.79-8.62-1.66l-8.99-8.99c-.71-.71-1.49-1.33-2.3-1.89-1.91-1.32-4.07-2.23-6.32-2.72-2.71-.59-5.54-.57-8.24.06-1.7.39-3.34 1.03-4.86 1.9-1.26.72-2.45 1.59-3.51 2.65-1.22 1.2-2.22 2.55-3.02 4-1.43 2.6-2.19 5.54-2.19 8.58-.06 4.74 1.81 9.25 5.21 12.64l8.91 8.91c-.25.58-.43 1.2-.54 1.83-.07.43-.12.87-.12 1.32s.04.89.12 1.32l.11.53c.24.99.66 1.92 1.25 2.74.24.34.51.66.81.96.49.49 1.04.9 1.63 1.23 1.18.68 2.53 1.05 3.94 1.05 1.09 0 2.15-.22 3.13-.62l.09.09.18.16v14.36h-6.2c-2.11 0-3.75 1.7-3.75 3.75s1.64 3.75 3.75 3.75h22.36c2.05 0 3.75-1.64 3.75-3.75 0-2.05-1.64-3.75-3.75-3.75h-6.2v-9.51c.8.14 1.64.22 2.49.22zm-16.38-10.56c-.35-.08-.69-.25-.95-.5-.35-.41-.59-.94-.59-1.46 0-.25.04-.47.11-.69.09-.28.24-.54.48-.78l21.13-21.13c.41-.35.88-.59 1.52-.59.53 0 1 .18 1.4.7.71.66.8 1.72.28 2.52-.08.12-.17.24-.28.35l-7.31 7.29-2.62 2.61-3 2.99-4.22 4.21-2.05 2.05-.86.85-1.07 1.07-.12.1c-.49.43-1.2.56-1.85.41zm-11.48-35.09c1.24-1.24 2.69-2.16 4.27-2.75 1.33-.5 2.74-.76 4.21-.76 3.22 0 6.2 1.23 8.49 3.51l8.49 8.49-16.97 16.97-8.49-8.49c-2.28-2.28-3.51-5.27-3.51-8.49 0-3.21 1.23-6.2 3.51-8.48zm25.35 39.41c-2.05-.41-4-1.32-5.58-2.75l16.93-16.93c2.03 2.21 3.11 5.08 3.11 8.07 0 3.22-1.23 6.2-3.51 8.49-2.86 2.85-7.09 3.88-10.95 3.12z"/></g><g fill="#49B7EB"><path d="M170 85.57l-1.99-16.56-1.99 16.56-10.13 1.36v1.5l10.13 1.36 1.99 16.56 1.99-16.56 15.8-2.11-15.8-2.11zM24.32 106.53l-1.29 11.12-10.59 1.4 10.59 1.41 1.29 11.06 1.35-11.06 10.59-1.41-10.59-1.4zM169.01 56.37l1.29 11.12 1.34-11.12 10.54-1.41-10.54-1.4-1.34-11.12-1.29 11.12-10.59 1.4zM21.28 106.82l1.64-13.7 13.05-1.75-13.05-1.7-1.64-13.75-1.64 13.75-13.04 1.7h-.01.01l13.04 1.75z"/><circle cx="179.25" cy="103.89" r="2.93"/><circle cx="32.92" cy="80.48" r="2.93"/><circle cx="155.84" cy="39.51" r="2.93"/></g></svg>