<svg baseProfile="tiny" xmlns="http://www.w3.org/2000/svg" viewBox="0 0 200 200"><g fill="#FF9D00"><path d="M133.34 146.71l-5.12 16.6 27.84 12.16-11.88-48.18c-2.81 6.87-6.02 14.3-10.84 19.42zM135.47 82.89c10.06-.06 17.88 6.57 17.59 16.76.06 3.33-.64 6.68-1.7 9.97l34.11-35.27-57.35-5.65c-1.65-.18-3.12-1.18-3.82-2.65l-24.77-51.52-7.42 14.59c7.7 1.9 14.25 8.15 14.25 18.7-.12 9.15-.57 18.3-.86 27.44 10.34-8.31 25.55-5.48 29.97 7.63zM43.5 106.48c-2.19-11.49-4.37-22.99-6.55-34.48l-22.42 2.35 29.12 32.95-.15-.82zM38.59 174.53l6.55-2.67c1.7-.69 3.36-2.09 5.05-3.13 1.03-.82 2.31-1.32 3.69-1.32h1.19l-5.8-30.54-10.68 37.66z"/></g><g fill="#FFCE13"><path d="M199.94 69.12l.12.34-.12-.34zM199.94 69.12c-.29-.83-.15-.41 0 0zM200.06 69.46zM199.94 69.12c-.59-1.65-2.18-2.82-3.94-3l-64.24-6.35-27.64-57.65c-1.62-3.37-6.73-3.53-8.47-.18l-14.17 27.28c.82-.22 1.65-.39 2.49-.5 2.36-.39 4.76-.33 7.1.19.29.06.58.12.87.19l.16.04 7.42-14.59 24.76 51.53c.71 1.47 2.18 2.47 3.82 2.65l57.35 5.65-34.11 35.27c-1.36 4.25-3.3 8.39-4.95 12.26-.73 1.72-1.47 3.55-2.23 5.41l11.88 48.18-27.84-12.16c-.42 1.37-.84 2.74-1.27 4.1h6.17c3.25 0 6 2.75 6 6h-.06v4.75l21.88 9.55c3.46 1.57 7.49-1.54 6.59-5.29l-14.94-60.65 46.35-47.88c1.26-1.33 1.61-3.16 1.02-4.8zM43.65 107.3l-29.12-32.95 22.42-2.35c-.58-3.07-1.19-6.03-1.38-9.15l-30.92 3.27c-3.62.36-5.53 4.73-3.06 7.59l42.24 47.88-16.94 59.65c-1.14 3.68 2.92 7 6.35 5.53l14.65-5.98v-7.38c0-.24.02-.47.05-.71l.04-.27.08-.39.09-.35.06-.18c.13-.38.29-.76.49-1.1l-10.11 4.11 10.68-37.66c-1.87-9.85-3.74-19.7-5.62-29.56z"/></g><path fill="#373737" d="M135.47 82.89c-4.42-13.1-19.63-15.94-29.98-7.62.3-9.14.74-18.29.86-27.44 0-10.55-6.54-16.8-14.25-18.7l-.16-.04c-.29-.07-.58-.13-.87-.19-2.33-.45-4.75-.51-7.1-.19-.84.12-1.68.29-2.49.5-7.42 1.97-13.66 8.06-13.83 18.31l-.06.48c-.43-.44-.89-.85-1.35-1.24-.18-.15-.36-.3-.55-.44l-.38-.29-.35-.25c-.2-.14-.41-.28-.62-.41l-.09-.05c-4-2.5-8.74-3.26-13.21-2.41-4.73.92-9.12 3.63-12.02 7.82-.21.31-.41.61-.6.92l-.2.35c-3.67 6.34-2.6 13.04-1.28 20l6.55 34.48.1.55.05.27c1.22 6.43 2.44 12.86 3.66 19.28l1.95 10.28 5.8 30.54h-1.19c-1.38 0-2.67.5-3.69 1.32-.9.72-1.6 1.69-1.98 2.79l-.06.18-.09.35-.08.39-.04.27c-.03.23-.05.47-.05.71v20.06c0 3.29 2.71 6 6 6h79.18c3.29 0 6-2.71 6-6v-20.06h.06c0-3.25-2.75-6-6-6h-6.17l1.27-4.1 5.12-16.6c.19-.2.38-.43.59-.68 4.49-5.08 7.56-12.16 10.26-18.74.76-1.86 1.5-3.69 2.23-5.41 1.64-3.87 3.59-8.01 4.95-12.26 1.05-3.29 1.76-6.64 1.7-9.97.29-10.2-7.53-16.83-17.59-16.76z"/><path fill="#ECEFF0" d="M123.06 177.41c-9.03 0-9.03 14 0 14s9.03-14 0-14z"/><g fill="#FFE994"><path d="M37.98 52.41l.24-.42.2-.35c.19-.31.39-.62.6-.92 2.9-4.19 7.29-6.9 12.02-7.82 4.43-.86 9.15-.14 13.21 2.41l.09.05.62.41.35.25.38.29.55.44.1.08 10.37-41.48-58.83 47.06h20.1zM123.76 5.35l11.77 47.06h47.06zM16.82 167.35l20.18-44.11-36.76-29.36zM157.59 122.94l20.23 44.12 16.53-73.47z"/></g><g fill="#E6E7E8"><path d="M119.29 151.88c-7.23-.21-13.03-3.89-15.76-9.4-7.06.72-26.72 6.44-31.51-.65 12.59-1.65 25.21-3.08 37.8-4.71.34-.02.67-.06 1-.09l.27-.03.76-.1.23-.04c.29-.05.57-.1.85-.16l.07-.02c8.3-1.71 15.56-7.73 14.56-16.85-.04-.33-.08-.66-.14-.99l-.16-.82c-1.01-4.94-3.23-7.93-6.2-9.77-4.73-2.92-11.35-2.91-18.01-3.16l-3.55-.14c-.81-.03-1.61-.06-2.42-.1-6.31-.26-12.62-.55-18.93-.84-4.87-.23-9.75-.46-14.63-.66 1.41-1.95 3.79-3.06 6.18-3.06 9.09.18 18.18.54 27.27.82 7.31.23 16.18-.76 22.96 2.47l9.86-16.43c-.61-10.72-12.56-14.8-20.09-7.27-4.93 4.82-8.93 10.88-11.64 17.21.57-16.93 1.39-33.87 1.7-50.8 0-16.15-25.06-16.22-25.06 0-.9 12.98-1.8 25.96-2.7 38.95-.06.91-1.2.77-1.35.12l-6-26.53-.18.06c-.08-.47-.18-.92-.29-1.35l-.12-.38c-.09-.3-.18-.59-.29-.87l-.15-.34c-.12-.28-.24-.56-.37-.82l-.13-.22c-.16-.29-.32-.58-.5-.84l-.06-.08c-3.14-4.58-9.17-5.76-14.12-4.03l-.2.07-.38.15c-4.32 1.74-7.67 5.76-7.21 11.73l.02.31.09.63-.18.06 20.56 104.53h60.58c1.76-5.53 3.52-11.06 5.29-16.59-2.12.77-4.36 1.06-6.61 1.06h-1.11zM148.7 98.92l-.04-.54-.01-.09c-.43-4.2-3.29-7.26-7.24-8.43-.94-.28-1.94-.46-2.99-.51l1.33.07c1.04.05 1.98.1-.01 0l-1.34-.07h-.02c-1.94-.09-3.99.05-5.78.88l-9.27 15.45c7.84 6.09 10.78 17.81 5.01 26.28-.25.37-.52.73-.79 1.08-.15.18-.3.36-.46.53l-.4.47-.54.55-.38.39-.58.51-.4.35-.57.44-.47.36-.49.33-.6.4-.37.22c-.25.15-.5.31-.76.45l-.21.11c-.32.17-.64.34-.96.5l-.02.01c-.75.37-1.53.7-2.31 1.01l-.13.05c-.74.28-1.5.53-2.26.76l-.3.09c-.72.21-1.44.39-2.17.56l-.4.09c-.73.16-1.46.29-2.19.41l-.33.06c.16.27.34.53.53.78l.05.06c.98 1.27 2.22 2.22 3.62 2.89 2.18 1.05 4.73 1.43 7.15 1.34 6.76-.26 9.62-6.69 12.47-11.85.25-.45.51-.91.76-1.37 5.33-9.52 12.02-20.65 13.63-31.56.11-.73.2-1.45.26-2.17 0-.29-.01-.59-.02-.89z"/></g></svg>