<svg baseProfile="tiny" xmlns="http://www.w3.org/2000/svg" viewBox="0 0 200 200"><g fill="#F58345"><path d="M93.94 35.71c-.11-14.26 10.91-26.03 24.87-27.09l-10.05-5.2-3.12-1.65c-5.71-3-12.76-2.94-18.41.18l-1.71.88-31.93 17.17-44.77 24.12c-5.65 3-8.88 8.94-8.82 15v82.71c0 5.01 2.46 9.62 6.51 12.76.26-11.7 11.88-19.87 17.58-23.18-7.72-6.43-13.56-15.27-16.21-25.76-.47-1.82-.82-3.71-1.06-5.53-2.82-20.82 8.06-41 26.47-50.35 1.53-.82 3.18-1.59 4.88-2.24 1.71-.65 3.53-1.18 5.35-1.65 17.47-4.41 35.12 1.18 46.94 13 1.31 1.29 2.52 2.68 3.67 4.12l-.19-27.29zM194.28 83.62c-4.89 6.26-12.47 10.31-20.99 10.38l-30.24.24c-6.94 9.18-18.29 13.88-33.88 14l-4.71.06 2.06-4.29c0-.06 1.94-4.12 3.47-12-1.95-.88-3.75-2-5.4-3.28 1.39 13.74-3.12 27.07-11.75 37.08 3.86 5.14 8.4 8.86 13.27 10.14 8.76 2.31 19.26.79 26.71-6.52-.96-4.99.16-10.31 3.55-14.54 6.2-7.73 17.59-8.89 25.45-2.58 7.86 6.3 9.2 17.68 3 25.4-3.21 4-7.82 6.23-12.61 6.58-12.7 14.28-32.39 20.43-52.29 15.25-1.29-.33-2.57-.73-3.85-1.17l7.44 40.12c1.13-.37 2.24-.84 3.29-1.42l1.71-.88 31.96-17.19 44.76-24.12c5.65-3 9.59-8.94 9.53-15l-.48-56.26z"/></g><g fill="#BBD758"><path d="M140.98 56.14c-2.1-1.77-6.12-5.85-6.18-10.87v-2.76h.26l26.39-.22-.94 3.48c-.06.28-1.66 6.23-5.9 10.1l.07 10.24v.43c.53-.18 1.06-.37 1.57-.59.81-.35 1.59-.77 2.34-1.22 5.66-3.41 9.44-9.61 9.36-16.68-.11-10.65-8.83-19.26-19.48-19.15-10.58.11-19.13 8.71-19.14 19.27l-.01.21c.08 7.89 4.89 14.65 11.71 17.58l-.01-1.22-.04-8.6zM193.98 55.8l-.15-20.92c-.12-11.59-9.65-21-21.24-20.88l-42.71.34-9.23.07c-11.59.12-21 9.65-20.88 21.24l.24 32c.06 8.88 5.76 16.82 14.18 19.71l2.35.82-.41 2.47c-.82 5.06-1.82 8.88-2.71 11.59 12-.88 20.59-5.06 25.65-12.53l.88-1.29 33.24-.29c11.59-.12 21-9.65 20.88-21.24l-.09-11.09zm-19.49-25.24c.16-.16.33-.3.54-.41l9.22-4.81c1.14-.59 2.5-.14 3.09.95.43.83.3 1.77-.22 2.45-.19.26-.44.48-.74.64l-9.22 4.77c-.36.18-.73.27-1.09.27-.82 0-1.59-.45-2-1.18-.48-.93-.26-2 .42-2.68zm-64.03-5.23l9.22 4.81c1.09.59 1.54 1.95.95 3.09-.24.42-.61.74-1.03.94-.3.14-.63.24-.97.24-.36 0-.73-.09-1.09-.27l-9.22-4.77c-.8-.43-1.25-1.28-1.21-2.15.02-.32.09-.64.25-.94.6-1.09 1.96-1.54 3.1-.95zm-5.01 26.52c-1.09 0-1.97-.73-2.2-1.73-.04-.17-.07-.35-.07-.54 0-1.27.86-2.36 2.27-2.27l9.77-.05c1.27 0 2.27 1 2.27 2.27.03.71-.32 1.35-.84 1.77-.38.31-.86.5-1.38.5l-9.82.05zm14.08 16.11l-8.53 3.32c-.24.12-.48.16-.72.16l-.31-.05c-.68-.11-1.29-.54-1.57-1.23-.4-1.04.12-2.2 1.12-2.6l8.52-3.32c1.04-.4 2.2.12 2.6 1.12.31.8.07 1.67-.51 2.21-.17.16-.37.3-.6.39zm18.31 10.3l-.06-6.23v-1.53c-6.77-3.31-11.83-9.6-13.43-17.17-.34-1.59-.52-3.23-.53-4.92-.11-13.33 10.37-24.36 23.56-25.01.35-.02.7-.03 1.05-.04 8.87-.07 16.72 4.55 21.17 11.53 2.42 3.79 3.84 8.27 3.88 13.08.07 8.95-4.62 16.86-11.71 21.29-.62.39-1.26.75-1.91 1.08v.27l.04 7.49c.06 6.23-5.46 6.29-5.46 6.29l-11.03.11c-.76 0-1.41-.13-1.97-.33-3.55-1.28-3.6-5.91-3.6-5.91zm48.46-8.1c-.32.8-1.08 1.28-1.88 1.28-.24 0-.48-.04-.72-.16l-8.52-3.32c-1-.4-1.52-1.56-1.12-2.6l.13-.25c.48-.83 1.52-1.24 2.47-.87l8.52 3.32c.99.4 1.51 1.55 1.13 2.58l-.01.02zm2.96-18.31l-9.81-.05c-1.23 0-2.27-1.04-2.23-2.27 0-.49.15-.93.4-1.3.41-.59 1.09-.97 1.87-.97l9.77.05c.81-.05 1.43.29 1.81.82l.13.18c.21.37.33.8.33 1.26l-.03.26c-.12 1.15-1.06 2.02-2.24 2.02zM146.5 53.38l.06 13.02h2.59l-.01-.87-.1-12.37 1.16-.83.05-.04c1.26-.93 2.24-2.2 3-3.45.19-.31.37-.62.53-.92l-10.48.05-2.15.01c1.16 2.1 3.26 3.92 4.19 4.58l1.16.82z"/></g><path fill="#fff" d="M169.6 34.89c-4.45-6.98-12.3-11.6-21.17-11.53-.35 0-.7.02-1.05.04-13.19.66-23.67 11.68-23.56 25.01.01 1.68.2 3.33.53 4.92 1.6 7.57 6.66 13.86 13.43 17.17v1.53l.06 6.23s.05 4.63 3.6 5.9c.57.2 1.21.33 1.97.33l11.03-.11s5.52-.06 5.46-6.29l-.04-7.49v-.27c.65-.33 1.29-.69 1.91-1.08 7.08-4.43 11.78-12.34 11.71-21.29-.04-4.8-1.46-9.28-3.88-13.07zm-26.3 13.07l10.48-.05c-.16.3-.35.61-.53.92-.76 1.26-1.74 2.52-3 3.45l-.05.04-1.16.83.1 12.37.01.87h-2.59l-.06-13.02-1.16-.83c-.94-.66-3.03-2.48-4.19-4.58h2.15zm15.3 16.75c-.75.45-1.53.87-2.34 1.22-.51.22-1.04.42-1.57.59v-.43l-.07-10.24c4.25-3.86 5.85-9.82 5.9-10.1l.94-3.48-26.39.22h-.26v2.76c.06 5.02 4.08 9.1 6.18 10.87l.06 8.58.01 1.22c-6.82-2.93-11.63-9.69-11.71-17.58l.01-.21c.01-10.55 8.56-19.16 19.14-19.27 10.65-.11 19.37 8.5 19.48 19.15.06 7.09-3.73 13.29-9.38 16.7z"/><g fill="#CAE861"><path d="M119.68 30.14l-9.22-4.81c-1.14-.59-2.5-.14-3.09.95-.16.3-.24.62-.25.94-.04.87.41 1.72 1.21 2.15l9.22 4.77c.36.18.73.27 1.09.27.34 0 .67-.09.97-.24.42-.2.79-.52 1.03-.94.58-1.13.13-2.5-.96-3.09zM116.64 51.3c.53-.42.87-1.06.84-1.77 0-1.27-1-2.27-2.27-2.27l-9.77.05c-1.41-.09-2.27 1-2.27 2.27 0 .19.03.36.07.54.24 1 1.12 1.73 2.2 1.73l9.81-.05c.53 0 1-.19 1.39-.5zM118.05 64.24l-8.52 3.32c-1 .4-1.52 1.56-1.12 2.6.28.69.89 1.13 1.57 1.23l.31.05c.24 0 .48-.04.72-.16l8.52-3.32c.23-.09.43-.23.61-.39.58-.54.82-1.41.51-2.21-.4-1-1.56-1.52-2.6-1.12zM176.07 34.41c.36 0 .73-.09 1.09-.27l9.22-4.77c.3-.16.54-.38.74-.64.52-.68.65-1.63.22-2.45-.59-1.09-1.95-1.54-3.09-.95l-9.22 4.81c-.2.11-.38.26-.54.41-.68.69-.9 1.75-.42 2.67.41.74 1.18 1.19 2 1.19zM191.2 48.32l-.13-.18c-.39-.53-1.01-.88-1.81-.82l-9.77-.05c-.78 0-1.46.38-1.87.97-.25.37-.4.81-.4 1.3-.05 1.23 1 2.27 2.23 2.27l9.81.05c1.18 0 2.12-.87 2.25-2.01l.03-.26c-.01-.47-.13-.91-.34-1.27zM185.18 67.56l-8.52-3.32c-.95-.36-1.99.04-2.47.87l-.13.25c-.4 1.04.12 2.2 1.12 2.6l8.52 3.32c.24.12.48.16.72.16.8 0 1.56-.48 1.88-1.28v-.02c.39-1.03-.13-2.18-1.12-2.58z"/></g><g fill="#D8DBDB"><path d="M76.68 110.33l-.11.22.14-.19-.03-.03zM63.94 107.47c-.26.08-.51.17-.76.26-2.49.88-4.57 2.15-5.92 3.82-1.18 1.45-1.82 3.2-1.72 5.28.88.15 1.73.26 2.55.31 2.28.16 4.32-.03 6.12-.47 5.84-1.4 9.24-5.29 10.86-7.72-3.03-2.19-6.72-2.82-11.13-1.48z"/></g><g fill="#96989C"><path d="M135.25 135.6c-2.31 1.93-4.81 3.46-7.43 4.61l6.62 10.29c3.76-1.89 7.25-4.31 10.36-7.21-1.91-.67-3.75-1.66-5.43-3-1.67-1.36-3.04-2.96-4.12-4.69zM158.05 117.02c-5.19-4.17-12.73-3.4-16.84 1.72-.54.67-.99 1.38-1.35 2.12-1.6 3.21-1.61 6.96-.16 10.18.76 1.7 1.93 3.26 3.49 4.51 1.89 1.52 4.1 2.38 6.34 2.61 3.29.34 6.64-.67 9.18-2.96.47-.42.91-.87 1.32-1.38 4.09-5.1 3.21-12.63-1.98-16.8zM55.59 52.65c-22.64 0-41 18.36-41 41 0 6.18 1.38 12.04 3.83 17.29l3.23-1.18c2.57 4.17 5.47 7.33 8.56 9.71 9.92 7.65 21.68 7.13 30.11 5.19.4-.09.8-.19 1.19-.29l-.09-.03c.22-.07.41-.14.59-.22l.26-.08c1.51-.61 2.32-2.1 1.83-3.34-.36-.89-1.31-1.4-2.38-1.39l-.06-.04.27-.05c-.98.07-1.91.09-2.74.07h-.58c-.55-.01-1.09-.05-1.64-.1-.77-.07-1.55-.17-2.31-.32-3.94-.72-7.59-2.39-10.47-4.85-3.7 1.38-8.25 2.08-13.82 1.5 0 0 8.53-3.29 9-10.47 0 0 .94-13.59 16.65-10.94 0 0 1.22-3.64 4.86-5.71 2.18-1.24 5.22-1.92 9.38-.93 0 0 .89.01 2.24-.09 3.21-.25 9.06-1.2 12-4.67 0 0 .12 2.57-.66 5.75-.47 1.92-1.27 4.06-2.62 6.01-.35.5-.74.99-1.17 1.46.69 4.98-.45 9.99-3.2 14.12l-.14.28.03.03-.14.19c-.45.81-.94 1.56-1.47 2.23l-.35.25c-.36.31-.63.66-.83 1.03l-.05.09c-.44.89-.43 1.87.14 2.53.83.96 2.49.88 3.73-.18l.03-.03.13-.05c.84-.68 1.63-1.38 2.36-2.1 2.37-2.3 4.23-4.75 5.67-7.24 8.66-14.98 2.24-31.8 2.24-31.8l3.3-1.48c-7.01-12.6-20.46-21.15-35.91-21.15zm-16.65 44l-1.76-4.47c-1.35-3.59-4.47-5.12-8.18-3.41-4.06 1.88-4.35 5.82-3.41 8.24l1.53 4.29-4 1.47-1.53-4.29c-2.18-5.59.59-11.88 6.18-14.06 5.59-2.18 11.88.59 14.06 6.18l1.71 4.29-4.6 1.76zm40.59-17.47l-1.76-4.47c-1.35-3.59-4.47-5.12-8.18-3.41-4.06 1.88-4.35 5.82-3.41 8.24l1.71 4.35-4 1.47-1.71-4.36c-2.18-5.59.59-11.88 6.18-14.06 5.59-2.18 11.88.59 14.06 6.18l1.71 4.29-4.6 1.77zM57.31 102.55c-.36.65-.79 1.37-1.31 2.12l1.19-.56 6.51-3.1 1.24-.59c-.37-.04-.73-.08-1.11-.13-1.55-.22-3.21-.56-5.01-1.04 0-.01-.43 1.35-1.51 3.3z"/></g><g fill="#4C4D4F"><path d="M92.12 73.53l-.64.29-3.3 1.48s6.42 16.82-2.24 31.8c-1.44 2.49-3.3 4.93-5.67 7.24-.73.71-1.53 1.41-2.36 2.1l-.13.05-.03.03c-1.23 1.06-2.9 1.14-3.73.18-.57-.66-.58-1.64-.14-2.53-2.7 2.74-6.02 4.09-9.12 4.71-.61.12-1.22.22-1.8.28-.35.04-.7.07-1.04.1l-.27.05.06.04c1.07-.01 2.02.49 2.38 1.39.5 1.24-.32 2.73-1.83 3.34l-.26.08c-.18.07-.37.15-.59.22l.09.03c-.39.1-.78.2-1.19.29-8.43 1.94-20.2 2.46-30.11-5.19-3.08-2.38-5.99-5.55-8.56-9.71l-3.23 1.18.16.36.1.21c.17.34.41.83.74 1.44l.29.54c.2.37.41.73.63 1.09.1.18.21.36.33.54 1.07 1.75 2.53 3.9 4.39 6.14 7.08 8.49 20.06 18.31 40.13 12.92 1.13-.3 2.28-.65 3.45-1.06.83-.28 1.66-.6 2.51-.93 2.19-.86 4.45-1.89 6.8-3.13 0 0 2.88-1.63 6.43-4.93 1.03-.96 2.12-2.06 3.21-3.31.4-.46.8-.93 1.19-1.42l.07-.09c7.12-8.97 13.39-24.11 3.28-45.82zM44.18 114.03c5.89-2.19 9.61-6.11 11.83-9.36.51-.75.95-1.47 1.31-2.12 1.07-1.94 1.51-3.31 1.51-3.31 1.79.48 3.45.82 5.01 1.04.38.05.75.09 1.11.13 7.59.83 12.23-1.37 15.07-4.48.43-.47.82-.96 1.17-1.46 1.35-1.95 2.15-4.09 2.62-6.01.78-3.19.66-5.75.66-5.75-2.94 3.48-8.79 4.42-12 4.67-1.35.11-2.24.09-2.24.09-4.16-.99-7.2-.31-9.38.93-3.63 2.08-4.85 5.72-4.85 5.72-15.71-2.65-16.65 10.94-16.65 10.94-.47 7.18-9 10.47-9 10.47 5.57.58 10.13-.12 13.83-1.5z"/></g><path fill="#373737" d="M199.82 34.82c-.11-14.82-12.29-26.82-27.17-26.7l-52 .41c-.62 0-1.23.04-1.83.08-13.97 1.06-24.99 12.83-24.87 27.09l.19 27.3c-1.15-1.44-2.37-2.82-3.67-4.12-11.82-11.82-29.47-17.41-46.94-13-1.82.47-3.65 1-5.35 1.65-1.71.65-3.35 1.41-4.88 2.24-18.42 9.35-29.3 29.52-26.48 50.35.24 1.82.59 3.71 1.06 5.53 2.65 10.49 8.48 19.33 16.21 25.76-5.7 3.31-17.32 11.48-17.58 23.18-.15 6.76 3.5 14.71 14.3 23.57l1.07-12.04.27-3.08 1.2-13.51c.15-1.31 1.14-2.33 2.41-2.58.27-.05.54-.08.82-.06 1.59.12 2.76 1.53 2.65 3.18l-1.44 15.9-3.09 34.16-5.23.05v.01l84.24-.76-.17-.93-7.44-40.12c1.28.44 2.57.84 3.85 1.17 19.9 5.18 39.59-.97 52.29-15.25 4.79-.35 9.39-2.58 12.61-6.58 6.2-7.73 4.86-19.1-3-25.4-7.86-6.3-19.25-5.14-25.45 2.58-3.39 4.23-4.51 9.56-3.55 14.54-7.45 7.3-17.96 8.83-26.71 6.52-4.87-1.28-9.41-5-13.27-10.14 8.64-10.01 13.15-23.34 11.75-37.08 1.65 1.29 3.45 2.4 5.4 3.28-1.53 7.88-3.47 11.94-3.47 12l-2.06 4.29 4.71-.06c15.59-.12 26.94-4.82 33.88-14l30.21-.25c8.52-.07 16.1-4.12 20.99-10.38 3.62-4.63 5.77-10.47 5.72-16.8l-.18-32zm-26.64 53.3l-33.24.29-.88 1.29c-5.06 7.47-13.65 11.65-25.65 12.53.88-2.71 1.88-6.53 2.71-11.59l.41-2.47-2.35-.82c-8.41-2.88-14.12-10.82-14.18-19.71l-.24-32c-.12-11.59 9.29-21.12 20.88-21.24l9.23-.07 42.72-.33c11.59-.12 21.12 9.29 21.24 20.88l.15 20.92.08 11.08c.12 11.59-9.3 21.12-20.88 21.24zm-31.98 30.63c4.11-5.12 11.65-5.89 16.84-1.72 5.19 4.17 6.08 11.69 1.97 16.81-.41.51-.85.96-1.32 1.38-2.54 2.28-5.89 3.3-9.18 2.96-2.24-.23-4.45-1.09-6.34-2.61-1.56-1.25-2.72-2.81-3.49-4.51-1.45-3.22-1.44-6.97.16-10.18.38-.75.83-1.46 1.36-2.13zm-5.95 16.85c1.08 1.74 2.44 3.34 4.13 4.69 1.67 1.34 3.52 2.33 5.43 3-3.12 2.9-6.61 5.32-10.36 7.21l-6.62-10.29c2.61-1.16 5.11-2.68 7.42-4.61zm-46.41-16.3l-.07.09c-.4.49-.79.97-1.19 1.42-1.09 1.25-2.18 2.35-3.21 3.31-3.54 3.3-6.43 4.93-6.43 4.93-2.34 1.23-4.61 2.26-6.8 3.13-.85.33-1.69.65-2.51.93-1.17.4-2.32.75-3.45 1.06-20.07 5.39-33.05-4.43-40.13-12.92-1.87-2.24-3.33-4.39-4.39-6.14l-.33-.54c-.23-.39-.44-.75-.63-1.09l-.29-.54c-.33-.61-.57-1.1-.74-1.44l-.1-.21-.16-.36c-2.45-5.26-3.83-11.11-3.83-17.29 0-22.64 18.36-41 41-41 15.45 0 28.9 8.55 35.89 21.17l.64-.29c10.12 21.72 3.85 36.86-3.27 45.78z"/><path d="M27.76 84.41c-5.59 2.18-8.35 8.47-6.18 14.06l1.53 4.29 4-1.47-1.52-4.29c-.94-2.41-.65-6.35 3.41-8.24 3.71-1.71 6.82-.18 8.18 3.41l1.76 4.47 4.59-1.76-1.71-4.29c-2.17-5.59-8.47-8.35-14.06-6.18zM63.88 85.35l4-1.47-1.71-4.35c-.94-2.41-.65-6.35 3.41-8.24 3.71-1.71 6.82-.18 8.18 3.41l1.76 4.47 4.59-1.76-1.71-4.29c-2.18-5.59-8.47-8.35-14.06-6.18-5.58 2.18-8.34 8.47-6.16 14.06l1.7 4.35zM64.94 100.41l-1.23.59-6.51 3.1-1.19.56c-2.22 3.25-5.94 7.17-11.83 9.36 2.87 2.46 6.53 4.14 10.47 4.85.76.15 1.53.25 2.31.32.54.05 1.09.09 1.64.1h.58c.84.02 1.76.01 2.74-.07.34-.03.69-.06 1.04-.1.59-.07 1.19-.16 1.8-.28 3.1-.62 6.41-1.97 9.12-4.71l.05-.09c.2-.37.47-.73.83-1.03.11-.1.23-.17.35-.25.53-.67 1.02-1.42 1.47-2.23l.11-.22.14-.28c2.75-4.13 3.88-9.14 3.2-14.12-2.85 3.13-7.5 5.33-15.09 4.5zm-.74 16.27c-1.8.43-3.83.62-6.12.47-.82-.06-1.67-.16-2.55-.31-.1-2.07.54-3.83 1.72-5.28 1.36-1.67 3.43-2.93 5.92-3.82.25-.09.5-.18.76-.26 4.4-1.34 8.1-.71 11.12 1.48-1.6 2.43-5.01 6.32-10.85 7.72zM26.59 146.88c-.28-.02-.56.01-.82.06-1.27.25-2.27 1.27-2.41 2.58l-1.2 13.51-.27 3.08-1.07 12.04-1.93 21.73v.29l.59-.01 5.23-.05 3.09-34.16 1.44-15.9c.11-1.64-1.06-3.05-2.65-3.17z"/></svg>