<svg baseProfile="tiny" xmlns="http://www.w3.org/2000/svg" viewBox="0 0 200 200"><g><g fill="#FFCE13"><path d="M148.525 13.157l-2.259 33.064.509 3.752c.123.316.269.615.375.936 2.406-.48 4.741-1.03 7.147-1.58h.07c3.231-2.195 6.526-3.436 9.962-3.57 8.382-.41 12.432 3.506 14.358 6.801 4.741 8.177 1.165 20.884-2.886 27.27-7.422 11.613-21.089 19.854-38.812 23.424-3.512 3.845-7.703 7.135-12.373 9.792 16.74 4.443 32.971 12.965 33.737 13.369.339.181.603.439.855.702l2.628-.287c1.82-.228 3.576 1.153 3.793 3.044.152 1.37-.538 2.622-1.645 3.295l10.998 19.151c1.083 1.885.673 4.056-.661 5.484l.006.012c.48.872.907 1.773 1.358 2.657 15.019-16.875 24.144-38.865 24.144-62.927-.013-36.306-20.721-67.901-51.304-84.389zM58.463 102.429c-11.197-2.745-26.45-8.932-35.101-22.599-3.986-6.251-7.556-18.753-3.09-26.995 1.785-3.231 5.566-7.076 13.462-7.076h1.03c2.95.135 5.701.954 8.376 2.33 1.557.404 4.601 1.147 8.897 2.025l.421-2.809c.029-.603.217-1.153.421-1.692l-.123-.638-3.325-30.436c-29.27 16.821-48.949 47.649-48.949 83.014 0 24.372 9.347 46.608 24.724 63.594l4.226-13.556c.064-.211.187-.386.281-.585-.591-.544-1.001-1.288-1.095-2.148-.211-1.885 1.153-3.576 3.038-3.787l2.616-.287c10.951-14.621 30.214-23.448 40.831-27.439-4.811-2.646-9.248-5.964-13.006-10.021l-3.634-.895z"/></g><path fill="#ABABAB" d="M111.92 132.291l13.199-11.97c-2.634-.761-5.285-1.44-7.89-1.949-.831-.164-1.504-.644-1.996-1.264-1.223.398-2.4.884-3.67 1.194-9.312 2.265-18.636 1.803-27.153-.866-.392.111-3.611 1.077-8.306 2.927l15.119 14.206 20.697-2.278z"/><path fill="#E6D0BA" d="M69.016 136.985c-3.178-2.827-5.771-6.087-7.673-9.693-.55.304-1.089.597-1.639.913l7.357 8.99 1.955-.21zM77.076 136.102l-11.074-11.267c-1.528.761-3.079 1.58-4.659 2.452 1.896 3.606 4.495 6.866 7.673 9.693l8.06-.878z"/><path fill="#ABABAB" d="M83.281 100.017c2.698 2.025 5.9 3.336 9.734 3.096 1.51-.07 2.54-.685 2.815-3.02l.047-.591-6.438-2.06-6.158 2.575zM102.777 99.625c.047.31.07.691.135.948.55 1.99 1.785 2.47 3.161 2.54 3.869.24 7.123-1.1 9.857-3.172l-6.076-2.575-7.077 2.259zM102.356 81.199h-.685c-9.066-.135-26.31-1.651-40.187-10.577-.48-.205-.96-.62-1.51-1.03h-.205l-1.375-1.165c.181 3.471.597 6.848 1.51 8.446 2.201 3.916 9.617 3.711 11.542 6.321.825 1.03 2.265 4.601 4.601 8.452.62.96 1.305 2.06 2.06 3.02l.521.661c2.809-3.524 7.123-7.147 13.562-8.745 2.131-.48 4.466 2.06 7.006 1.926h.48c2.886.205 5.566-2.265 7.902-1.715 6.099 1.633 10.243 5.057 12.988 8.417l.474-.609c.825-1.03 1.51-2.131 2.131-3.161 2.335-3.781 3.711-7.211 4.466-8.241 1.926-2.61 9.342-2.406 11.542-6.321.72-1.27 1.136-3.664 1.364-6.333-.855.486-1.674.972-2.605 1.457-12.433 6.312-22.735 8.922-35.582 9.197z"/><g fill="#635647"><path d="M141.993 69.727l-.082.047c-.421.258-.919.509-1.37.767-.228 2.669-.644 5.063-1.364 6.333-2.201 3.916-9.617 3.711-11.542 6.321-.755 1.03-2.131 4.466-4.466 8.241-.62 1.03-1.305 2.131-2.131 3.161l-.474.609c1.059 1.294 1.932 2.575 2.605 3.746.907 1.557 1.487 2.868 1.826 3.787l.023.059c1.744-1.311 3.453-2.868 5.11-4.636 1.61-1.692 3.079-3.506 4.39-5.426l.41-.597c1.569-2.353 3.055-4.881 4.32-7.843 0 0 2.452-6.596 2.821-14.609l-.076.04zM78.633 95.329l-.521-.661c-.755-.96-1.44-2.06-2.06-3.02-2.335-3.845-3.781-7.422-4.601-8.452-1.926-2.61-9.342-2.406-11.542-6.321-.907-1.598-1.329-4.975-1.51-8.446 0 0-.135-.07-.275-.205-.339-.275-.615-.48-.954-.819l-.006-.006-.263-.217c-.234 8.458 2.253 15.329 2.253 15.329 2.833 10.021 8.692 16.553 14.984 20.831l.158-.445c.31-.872.86-2.16 1.756-3.734.655-1.194 1.516-2.506 2.581-3.834zM121.045 102.107l-5.121-2.166c-2.733 2.072-5.982 3.412-9.857 3.172-1.375-.07-2.61-.55-3.161-2.54-.064-.258-.088-.638-.135-.948l-.246.076c-1.235-1.1-2.646-2.745-3.055-4.05-.345 1.375-2.294 2.769-3.529 3.869l-.064-.018-.047.591c-.275 2.335-1.305 2.956-2.815 3.02-3.834.24-7.035-1.077-9.734-3.096l-5.174 2.166-3.014 1.258-.521.217c8.376 5.537 17.407 7.112 21.054 7.498v.07s.345 0 .96.07c.48.07.755.07.755.07v-.07c1.165.07 2.745.07 4.396 0v.07s.62 0 1.785-.135c.275-.07.55-.07.825-.07.685-.07 1.44-.205 2.335-.345 2.704-.503 6.339-1.563 10.243-3.33l.585-.269c1.024-.48 2.019-1.001 2.991-1.557.398-.228.796-.492 1.194-.737.825-.503 1.645-.931 2.464-1.516l-.059-.035-3.055-1.265z"/></g><path fill="#373634" d="M91.217 134.556l-15.119-14.205c-2.927 1.147-6.392 2.646-10.097 4.483l11.074 11.267 14.142-1.545zM123.515 131.021c4.203-1.838 8.657-4.167 12.561-7.006-3.477-1.323-7.193-2.605-10.957-3.693l-13.199 11.97 11.595-1.271z"/><path fill="#38322B" d="M125.025 102.792l-.023-.059c-.345-.919-.919-2.23-1.826-3.787-.667-1.165-1.539-2.452-2.605-3.746-2.751-3.354-6.895-6.778-12.988-8.417-2.335-.55-5.016 1.926-7.902 1.715h-.48c-2.54.135-4.876-2.406-7.006-1.926-6.433 1.598-10.746 5.221-13.562 8.745-1.059 1.329-1.926 2.64-2.581 3.828-.901 1.574-1.446 2.862-1.756 3.734l-.158.445c-.076.246-.129.451-.146.562l.585-.246.521-.217 3.014-1.258 5.174-2.165 6.163-2.575 6.438 2.06.064.018c1.235-1.1 3.184-2.493 3.529-3.869.41 1.305 1.82 2.95 3.055 4.05l.246-.076 7.071-2.253 6.076 2.575 5.121 2.166 3.055 1.258.07.029 1.206.498c-.033-.159-.168-.574-.355-1.089z"/><g fill="#A37C49"><path d="M140.98 58.905l-.187.029-.035.006-.023.006c-12.221 2.06-24.987 3.02-38.034 3.02-17.77 0-33.134-1.779-44.261-3.699l-.047-.006h-.018l-.076-.018-1.621-.263 1.235 1.1.158.117.117.088.029.029.117.1c1.323 1.188 2.651 2.318 3.974 3.313h.07l.96.755c.55.48 1.1.96 1.651 1.235 13.123 8.452 30.091 9.546 36.752 9.617l.369.176.111-.176c11.747-.205 21.159-2.681 32.561-8.516 2.248-1.124 4.144-2.166 6.023-3.477l.568-.363.006-.006.252-.187c1.428-1.001 2.868-2.23 4.489-3.728-1.715.321-3.425.584-5.14.848zM59.33 41.825l7.551-.047 33.322-.199 31.665-.187 7.837-.047.234-3.459 1.902-27.949c-12.69-5.683-26.784-8.937-41.692-8.937-15.885 0-30.846 3.693-44.173 10.091l2.95 27.047.404 3.687z"/></g><path fill="#373737" d="M178.68 52.554c-1.926-3.295-5.976-7.211-14.358-6.801-3.436.135-6.731 1.375-9.962 3.57h-.07c-2.406.55-4.741 1.1-7.147 1.58-.105-.322-.252-.62-.375-.937l-.509-3.752 2.259-33.064c-1.095-.591-2.218-1.112-3.336-1.662-1.1-.544-2.218-1.054-3.336-1.557l-1.902 27.949-.234 3.459-7.837.047-31.665.187-33.322.199-7.551.047-.404-3.687-2.956-27.041c-1.089.521-2.224.977-3.289 1.534-1.118.585-2.16 1.282-3.248 1.908l3.325 30.436c.023.222.082.421.117.638-.211.544-.398 1.095-.427 1.697l-.416 2.809c-4.296-.878-7.34-1.621-8.897-2.025-2.675-1.375-5.426-2.195-8.376-2.335h-1.036c-7.902 0-11.677 3.845-13.462 7.076-4.466 8.241-.896 20.743 3.09 26.995 8.657 13.673 23.904 19.854 35.101 22.599l3.641.896c3.758 4.056 8.194 7.375 13.006 10.021-10.623 3.998-29.88 12.824-40.831 27.439l4.975-.544 5.133-.562c1.738-1.727 3.588-3.354 5.531-4.876 3.143-2.458 6.468-4.671 9.786-6.596.55-.322 1.095-.609 1.639-.913 1.574-.878 3.131-1.697 4.659-2.452 3.705-1.838 7.17-3.336 10.097-4.483 4.7-1.844 7.919-2.809 8.306-2.927 8.522 2.669 17.846 3.137 27.153.866 1.27-.31 2.447-.796 3.67-1.194.492.62 1.165 1.1 1.996 1.264 2.605.509 5.256 1.188 7.89 1.949 3.764 1.089 7.48 2.371 10.957 3.693l.339.129 1.311.509c3.371 1.323 6.45 2.646 9.066 3.828l1.159-.129 7.047-.773 4.208-.462c-.252-.263-.515-.521-.855-.702-.767-.404-16.997-8.932-33.737-13.369 4.671-2.657 8.862-5.947 12.373-9.792 17.723-3.57 31.396-11.817 38.812-23.424 4.057-6.381 7.628-19.088 2.892-27.265zm-149.553 23.565c-3.506-5.496-5.496-15.042-2.815-19.988 1.305-2.341 3.711-3.506 7.416-3.506h.691c1.756.117 3.377.568 5.086 1.352l-.053.164 1.159.328c2.944 1.446 5.83 3.641 8.645 6.117v.07c-.55 3.161-.755 6.456-.62 9.822-.275 3.161-.205 6.456.205 9.687.205 1.785.62 3.57 1.1 5.701.62 2.54 1.446 5.08 2.54 7.556-8.446-3.086-17.653-8.377-23.354-17.303zm29.172-17.876l.076.012h.018l.047.006c11.127 1.92 26.491 3.699 44.261 3.699 13.041 0 25.812-.96 38.034-3.02l.023-.006.035-.006.187-.029c1.709-.263 3.424-.527 5.133-.855-1.627 1.493-3.061 2.722-4.489 3.728l-.252.187-.006.006-.568.363c-1.879 1.311-3.775 2.353-6.023 3.477-11.402 5.841-20.814 8.311-32.561 8.516l-.111.176-.369-.176c-6.661-.07-23.629-1.165-36.752-9.617-.55-.275-1.1-.755-1.651-1.235l-.96-.755h-.07c-1.323-.995-2.651-2.125-3.974-3.313l-.117-.1-.023-.018-.117-.088-.158-.117-1.235-1.1 1.622.265zm80.949 26.047c-1.264 2.962-2.751 5.496-4.32 7.843l-.41.597c-2.891 4.191-6.14 7.545-9.494 10.062.187.509.322.931.351 1.1l-1.206-.498c-.825.585-1.645 1.013-2.464 1.516-.398.246-.79.503-1.194.737-1.018.579-2.002 1.089-2.991 1.557l-.585.269c-3.904 1.773-7.539 2.827-10.243 3.33-.896.135-1.651.275-2.335.345-.275 0-.55 0-.825.07-1.171.135-1.785.135-1.785.135v-.07c-1.651.07-3.231.07-4.396 0v.07s-.275 0-.755-.07c-.62-.07-.96-.07-.96-.07v-.07c-3.646-.386-12.678-1.961-21.054-7.498l-.585.246c.018-.111.07-.31.146-.562-6.292-4.279-12.151-10.811-14.984-20.831 0 0-2.493-6.872-2.253-15.329l.263.217.006.006c.339.339.615.544.954.819.135.135.275.205.275.205l1.37 1.165h.205c.55.41 1.03.825 1.51 1.03 13.878 8.932 31.121 10.442 40.187 10.577h.685c12.848-.275 23.149-2.886 35.587-9.207.925-.486 1.75-.972 2.605-1.457.445-.258.948-.509 1.37-.767l.082-.047.076-.041c-.381 8.024-2.833 14.621-2.833 14.621zm30.776-8.171c-6.456 10.032-17.173 15.458-26.655 18.408 5.426-9.066 7.966-19.854 6.801-30.846 2.406-2.265 5.221-5.081 8.657-8.996l.205-.205c1.926-1.235 3.711-1.785 5.566-1.855 4.121-.205 6.661.896 8.107 3.366 2.879 4.875.889 14.562-2.681 20.128z"/><path fill="#E6D8CA" d="M48.882 180.234l-21.662 8.546v11.238h27.158v-16.81c-1.867-.943-3.699-1.932-5.496-2.974zM48.882 180.234c1.797 1.042 3.629 2.031 5.496 2.973v-5.139l-5.496 2.166z"/><path fill="#E6B07A" d="M113.202 197.905l-6.07-4.139-33.907-23.137-11.94 4.741h-.059v24.642h52.678z"/><g fill="#614626"><path d="M44.387 139.678l1.61-.176 21.065-2.306-7.357-8.99c-3.319 1.926-6.643 4.138-9.786 6.596-1.944 1.522-3.794 3.149-5.532 4.876zM52.487 93.427c-1.1-2.476-1.926-5.016-2.54-7.556-.48-2.131-.896-3.916-1.1-5.701-.41-3.231-.48-6.526-.205-9.687-.135-3.366.07-6.661.62-9.822v-.07c-2.821-2.482-5.701-4.671-8.651-6.117l-1.159-.334.047-.164c-1.703-.784-3.33-1.235-5.08-1.352h-.691c-3.711 0-6.117 1.171-7.422 3.506-2.681 4.946-.685 14.492 2.815 19.988 5.707 8.927 14.914 14.218 23.366 17.309zM170.024 76.119c3.57-5.566 5.566-15.247 2.681-20.129-1.44-2.47-3.986-3.57-8.107-3.366-1.855.07-3.641.62-5.566 1.855l-.205.205c-3.436 3.916-6.251 6.731-8.657 8.996 1.171 10.992-1.375 21.774-6.801 30.846 9.482-2.955 20.199-8.381 26.655-18.407zM174.964 152.321l-10.998-19.151c-.416.252-.878.439-1.393.492l-.901.1-.784.088.17 2.236.527 6.977.263 3.477-7.527.679-.831-11.092-.111-1.457-3.079.339.064 1.135.942 16.494-7.527.901-.977-17.354-.018-.357-2.979.322.006.047.966 12.742-7.527.679-.948-12.649-3.822.416-6.573.72-18.648 2.043-.533.059.053.375.059.433.468 3.395.433 3.137.041.316.937 6.784.222 1.598-2.148.258-5.069.609-17.776 2.142-.462-7.644-.111-1.879-.006-.129v-.012c-2.821.849-6.005 1.908-9.453 3.202-2.891 1.083-5.958 2.341-9.131 3.781-6.749 3.061-13.954 6.93-20.966 11.864l-2.008-3.371s11.987-9.429 32.192-16.336c2.88-.983 5.941-1.908 9.148-2.757l-.088-1.457-.059-1.007-.041-.697-1.112.123-10.296 1.13c-8.832 3.605-20.808 8.674-31.016 13.603l-1.896.925-2.973 9.031-3.418 10.378-.076.228-.445.029-4.074.269 4.378-14.41 2.85-9.377s3.395-1.645 8.294-3.875c3.254-1.487 7.164-3.225 11.22-4.928l-9.254 1.013-8.727.954-.38.018c-.884 0-1.697-.345-2.312-.913-.094.199-.217.375-.281.585l-4.238 13.55-6.831 21.902c-.211.667-.217 1.305-.146 1.914l2.084-.814 21.528-8.505 12.537-4.952 3.395-1.346 3.512-1.405.293-.117 10.828-4.273c.176-.064.345-.053.521-.064.164-.035.31-.123.486-.129l33.755-2.154c5.502-.673 11.203-1.299 16.804-1.861 1.171-.117 2.341-.234 3.453-.351 1.171-.117 2.283-.234 3.395-.293 15.54-1.452 29.687-2.488 36.968-2.991 3.278-.228 5.174-.345 5.174-.345.468.814.931 1.633 1.34 2.447 1.336-1.437 1.751-3.603.663-5.487zM83.807 143.125l.211 1.668 1.305-.304c.615-.129 1.241-.252 1.867-.375l-.246-1.604-.088-.568-3.155.345.082.638.024.2zM84.662 149.968l.41 3.266 7.755-1.106 4.893-.697-.363-3.389-.029-.252-.339-3.202-.363-3.395-.035-.316-4.349.474.047.299.521 3.313.404 2.552.146.913.14.884-3.096.345-2.324.258-.1-.656-.293-1.914c-.948.222-2.013.48-3.248.802l.223 1.821z"/></g><path fill="#543D21" d="M167.987 159.567l.931-.211 3.167-.726.176.462v.006c.263.62.773 1.855 1.428 3.553 2.663 6.924 7.861 21.85 9.927 37.36h5.56c-2.365-11.098-6.567-25.994-13.509-39.544-.457-.884-.884-1.785-1.358-2.657l-.006-.012c-.41-.814-.872-1.633-1.34-2.447 0 0-1.896.117-5.174.345-7.287.503-21.428 1.539-36.968 2.991-1.112.059-2.224.176-3.395.293-1.112.117-2.283.234-3.453.351-5.601.568-11.302 1.188-16.804 1.861l16.804-1.071 3.453-.222 3.395-.217 1.147-.076c1.756-.1 3.032.966 3.459 2.452.07.252.176.486.193.755.123 1.891-1.317 3.524-3.208 3.646l-1.586.1-3.395.217-3.454.224-2.915.187c.884.831 1.867 1.879 2.915 3.126 1.1 1.311 2.259 2.874 3.453 4.718.533.825 1.065 1.639 1.604 2.581 0 0-.591-.404-1.604-1.065-.866-.562-2.06-1.317-3.453-2.166-3.325-2.025-7.867-4.606-12.373-6.591l-2.148.146c2.16 2.107 4.829 5.256 7.533 9.985 0 0-8.212-5.613-16.523-9.412l-16.646 1.065.006.006 33.784 22.968.398.269c.644.41 1.112 1.054 1.346 1.756l1.873 5.443h3.044l-.293-.644-3.342-7.369-4.677-10.307 6.79-3.278 1.229 2.692 3.453 7.609.679 1.498 2.716 5.994.644 1.405-.644.351-3.395 1.814-.468.234h8.546l-4.507-9.892 5.917-2.856.872-.421.035.076 5.994 13.093h10.77c-.989-5.391-2.634-11.853-5.016-18.736-1.416-4.097-3.032-8.311-5.11-12.637.498.591 3.992 4.753 8.019 10.945 3.576 5.508 7.574 12.608 10.301 20.427h14.574c-1.007-9.675-3.272-22.025-8.212-32.871-1.1-2.411-2.283-4.776-3.67-6.989l2.417-.562.094-.025zm-20.773 23.073l3.541 7.761-6.684 3.57-3.734-8.194-5.145-11.291 6.795-3.289 5.227 11.443z"/><g fill="#966F4B"><path d="M128.104 190.214l-.679-1.499-3.454-7.609-1.229-2.692-6.789 3.277 4.676 10.314 3.342 7.363.293.644h2.692l.469-.234 3.394-1.815.644-.351-.644-1.405zM137.785 186.842l-.872.422-5.918 2.856 4.507 9.892h8.311l-5.993-13.088zM147.214 182.64l-5.221-11.437-6.795 3.289 5.139 11.291 3.734 8.194 6.684-3.57z"/></g><path fill="#9C734D" d="M170.404 165.988c-.41.398-.843.767-1.264 1.153 4.94 10.852 7.211 23.202 8.212 32.871h6.263c-2.066-15.511-7.264-30.436-9.927-37.36-1.071 1.135-2.16 2.253-3.284 3.336zM172.26 159.098c-.363.117-.743.211-1.147.252l-2.154.164c.591 2.125 1.1 4.273 1.446 6.479 1.124-1.083 2.212-2.201 3.284-3.33-.657-1.703-1.166-2.938-1.429-3.565zM167.887 159.59l-2.417.562c1.381 2.212 2.57 4.577 3.67 6.989.416-.386.855-.761 1.264-1.153-.345-2.207-.855-4.355-1.446-6.479l-1.071.081zM168.917 159.356l.041.152 2.154-.164c.404-.035.784-.129 1.147-.252l-.176-.462-3.166.726zM167.987 159.567l-.1.023 1.071-.082-.041-.152-.93.211z"/><g fill="#73532D"><path d="M137.72 124.647l-1.311-.509-.339-.129c-3.904 2.845-8.358 5.168-12.561 7.006l6.485-.708 5.063-.556 11.718-1.282c-2.605-1.176-5.683-2.499-9.055-3.822zM79.148 145.97c-3.208.849-6.269 1.773-9.148 2.757-20.205 6.907-32.192 16.336-32.192 16.336l2.008 3.371c7.012-4.934 14.217-8.803 20.966-11.858 3.178-1.44 6.239-2.698 9.131-3.781 3.447-1.294 6.632-2.353 9.453-3.202l-.1-1.615-.118-2.008zM87.559 146.497l-.094-.597-.275-1.779c-.626.123-1.253.246-1.867.375-.445.094-.866.205-1.305.304l.088.702.129 1.024.205 1.639c1.241-.322 2.3-.579 3.248-.802l-.082-.544-.047-.322zM50.386 145.935c-4.056 1.709-7.96 3.447-11.22 4.928-4.893 2.23-8.294 3.875-8.294 3.875l-2.85 9.377-4.366 14.41 4.068-.269.445-.029.076-.228 3.418-10.378 2.973-9.031c.626-.31 1.253-.615 1.896-.925 10.208-4.934 22.189-10.003 31.016-13.603l-17.162 1.873z"/></g><g fill="#B8916C"><path d="M103.784 147.86l-.041-.31-.439-3.143-.468-3.395-.059-.427-.052-.38-4.917.538-1.212.135.035.316.357 3.389.346 3.201.023.252.363 3.389-4.893.702-7.755 1.107-.41-3.266-.223-1.809-.204-1.645-.129-1.018-.088-.703-.211-1.668-.023-.199-.082-.638-.492.053-4.255.468.047.697.058 1.007.088 1.457.123 2.008.1 1.615v.006l.005.134.118 1.873.462 7.651 17.776-2.143 5.063-.614 2.148-.258-.223-1.592zM87.19 144.114l.275 1.78.094.603.047.316.082.544.293 1.914.105.65 2.318-.258 3.102-.345-.141-.884-.146-.913-.404-2.558-.521-3.313-.047-.298-5.39.591.088.568zM161.583 143.055l-.526-6.977-.17-2.236-6.193.679-1.311.141.111 1.457.826 11.092 7.527-.679zM139.804 136.148l-.451.053-7.053.773.949 12.648 7.527-.685-.972-12.742zM150.305 135.001l-7.516.82.018.357.977 17.354 7.527-.901-.942-16.494z"/></g><g fill="#402E19"><path d="M144.457 168.639c2.078 4.325 3.693 8.534 5.11 12.637 2.382 6.883 4.027 13.345 5.016 18.736h8.194c-2.728-7.82-6.725-14.92-10.301-20.427-4.027-6.193-7.521-10.355-8.019-10.946zM131.967 159.619l-1.147.076-3.395.217-3.453.222-16.804 1.071-33.755 2.154c-.176.012-.322.094-.486.129-.176.012-.345 0-.521.064l-10.828 4.273-.293.117-3.512 1.405-3.395 1.346-12.537 4.952-21.528 8.505-2.084.814-.023.006-1.697.702c-1.814.761-2.692 2.751-1.932 4.448.702 1.814 2.692 2.692 4.39 1.932l1.346-.527v8.487h6.907v-11.238l21.662-8.546 5.496-2.166v21.949h6.848v-24.641h.059l11.94-4.741 33.907 23.137 6.07 4.138.702 2.107h7.316l-1.873-5.443c-.234-.702-.702-1.346-1.346-1.756l-.398-.269-33.784-22.968-.006-.006 16.646-1.065c8.317 3.793 16.523 9.412 16.523 9.412-2.704-4.729-5.373-7.878-7.533-9.985l2.142-.135c4.507 1.978 9.049 4.56 12.373 6.591 1.393.849 2.587 1.604 3.453 2.166 1.018.661 1.604 1.065 1.604 1.065-.538-.942-1.071-1.756-1.604-2.581-1.194-1.844-2.353-3.407-3.453-4.718-1.048-1.247-2.037-2.294-2.915-3.126l2.915-.187 3.453-.222 3.395-.217 1.586-.1c1.891-.123 3.33-1.756 3.208-3.646-.018-.275-.123-.509-.193-.755-.414-1.481-1.69-2.546-3.446-2.447zM161.823 126.83l-2.628.287-4.208.462-7.047.773-1.159.129-11.718 1.282-5.063.556-6.485.708-11.595 1.27-20.702 2.265-14.141 1.545-8.06.884-1.955.217-21.065 2.306-1.61.176-5.133.562-4.975.544-2.616.287c-1.885.211-3.248 1.902-3.038 3.787.094.86.503 1.604 1.095 2.148.615.568 1.428.913 2.312.913l.38-.018 8.727-.954 9.254-1.013 17.161-1.879 10.296-1.13 1.112-.123 4.255-.462.492-.053 3.149-.345 5.391-.591 4.349-.474 1.212-.135 4.917-.538.533-.059 18.648-2.043 6.573-.72 3.822-.416 7.053-.773.451-.059 2.985-.328 7.515-.825 3.079-.339 1.311-.14 6.193-.679.784-.088.901-.1c.515-.059.977-.24 1.393-.492 1.106-.673 1.797-1.926 1.645-3.295-.213-1.883-1.969-3.258-3.79-3.03z"/></g><path fill="#F7925F" d="M124.791 201.182l2.165-1.17h-2.692z"/></g></svg>